{
    "asset" : {
        "generator" : "Khronos glTF Blender I/O v3.2.43",
        "version" : "2.0"
    },
    "scene" : 0,
    "scenes" : [
        {
            "name" : "Scene",
            "nodes" : [
                5
            ]
        }
    ],
    "nodes" : [
        {
            "mesh" : 0,
            "name" : "lower_brain"
        },
        {
            "mesh" : 1,
            "name" : "Object_3"
        },
        {
            "mesh" : 2,
            "name" : "tumor"
        },
        {
            "mesh" : 3,
            "name" : "upper_brain"
        },
        {
            "children" : [
                0,
                1,
                2,
                3
            ],
            "name" : "Segmentation.obj.cleaner.materialmerger.gles"
        },
        {
            "children" : [
                4
            ],
            "name" : "Sketchfab_model",
            "rotation" : [
                0,
                0,
                -1,
                8.926873812141351e-33
            ],
            "translation" : [
                7.345054626464844,
                1.8902339935302734,
                -1.8902339935302734
            ]
        }
    ],
    "materials" : [
        {
            "alphaMode" : "BLEND",
            "doubleSided" : true,
            "name" : "mtl9617.001",
            "pbrMetallicRoughness" : {
                "baseColorFactor" : [
                    0.0231329258531332,
                    0.006860504392534494,
                    0.2666667401790619,
                    0.4273221790790558
                ],
                "metallicFactor" : 0,
                "roughnessFactor" : 0.9798517227172852
            }
        },
        {
            "doubleSided" : true,
            "name" : "mtl4865.001",
            "pbrMetallicRoughness" : {
                "baseColorFactor" : [
                    0.2810460329055786,
                    0.02354075387120247,
                    0.02354075387120247,
                    1
                ],
                "metallicFactor" : 0,
                "roughnessFactor" : 0.9810686707496643
            }
        },
        {
            "doubleSided" : true,
            "name" : "mtl1.001",
            "pbrMetallicRoughness" : {
                "baseColorFactor" : [
                    0.16601215302944183,
                    0.026558006182312965,
                    0.028134390711784363,
                    1
                ],
                "metallicFactor" : 0,
                "roughnessFactor" : 0.7186020016670227
            }
        }
    ],
    "meshes" : [
        {
            "name" : "Object_3",
            "primitives" : [
                {
                    "attributes" : {
                        "POSITION" : 0,
                        "NORMAL" : 1
                    },
                    "indices" : 2,
                    "material" : 0
                }
            ]
        },
        {
            "name" : "Object_1",
            "primitives" : [
                {
                    "attributes" : {
                        "POSITION" : 3,
                        "NORMAL" : 4
                    },
                    "indices" : 5,
                    "material" : 1
                }
            ]
        },
        {
            "name" : "Object_0",
            "primitives" : [
                {
                    "attributes" : {
                        "POSITION" : 6,
                        "NORMAL" : 7
                    },
                    "indices" : 8,
                    "material" : 2
                }
            ]
        },
        {
            "name" : "Object_2",
            "primitives" : [
                {
                    "attributes" : {
                        "POSITION" : 9,
                        "NORMAL" : 10
                    },
                    "indices" : 11,
                    "material" : 0
                }
            ]
        }
    ],
    "accessors" : [
        {
            "bufferView" : 0,
            "componentType" : 5126,
            "count" : 48774,
            "max" : [
                72.8386001586914,
                73.00129699707031,
                82.36209869384766
            ],
            "min" : [
                -65.79550170898438,
                -26.47909927368164,
                -91.44090270996094
            ],
            "type" : "VEC3"
        },
        {
            "bufferView" : 1,
            "componentType" : 5126,
            "count" : 48774,
            "type" : "VEC3"
        },
        {
            "bufferView" : 2,
            "componentType" : 5123,
            "count" : 244236,
            "type" : "SCALAR"
        },
        {
            "bufferView" : 3,
            "componentType" : 5126,
            "count" : 4752,
            "max" : [
                14.009900093078613,
                -9.813969612121582,
                46.50210189819336
            ],
            "min" : [
                -19.378700256347656,
                -47.126399993896484,
                11.533100128173828
            ],
            "type" : "VEC3"
        },
        {
            "bufferView" : 4,
            "componentType" : 5126,
            "count" : 4752,
            "type" : "VEC3"
        },
        {
            "bufferView" : 5,
            "componentType" : 5123,
            "count" : 28500,
            "type" : "SCALAR"
        },
        {
            "bufferView" : 6,
            "componentType" : 5126,
            "count" : 4864,
            "max" : [
                15.491900444030762,
                -8.59142017364502,
                46.760501861572266
            ],
            "min" : [
                -19.451799392700195,
                -48.69609832763672,
                11.115400314331055
            ],
            "type" : "VEC3"
        },
        {
            "bufferView" : 7,
            "componentType" : 5126,
            "count" : 4864,
            "type" : "VEC3"
        },
        {
            "bufferView" : 8,
            "componentType" : 5123,
            "count" : 29172,
            "type" : "SCALAR"
        },
        {
            "bufferView" : 9,
            "componentType" : 5126,
            "count" : 65720,
            "max" : [
                73.1404037475586,
                73.04540252685547,
                82.66680145263672
            ],
            "min" : [
                -65.74019622802734,
                -60.49100112915039,
                -87.32369995117188
            ],
            "type" : "VEC3"
        },
        {
            "bufferView" : 10,
            "componentType" : 5126,
            "count" : 65720,
            "type" : "VEC3"
        },
        {
            "bufferView" : 11,
            "componentType" : 5125,
            "count" : 360600,
            "type" : "SCALAR"
        }
    ],
    "bufferViews" : [
        {
            "buffer" : 0,
            "byteLength" : 585288,
            "byteOffset" : 0
        },
        {
            "buffer" : 0,
            "byteLength" : 585288,
            "byteOffset" : 585288
        },
        {
            "buffer" : 0,
            "byteLength" : 488472,
            "byteOffset" : 1170576
        },
        {
            "buffer" : 0,
            "byteLength" : 57024,
            "byteOffset" : 1659048
        },
        {
            "buffer" : 0,
            "byteLength" : 57024,
            "byteOffset" : 1716072
        },
        {
            "buffer" : 0,
            "byteLength" : 57000,
            "byteOffset" : 1773096
        },
        {
            "buffer" : 0,
            "byteLength" : 58368,
            "byteOffset" : 1830096
        },
        {
            "buffer" : 0,
            "byteLength" : 58368,
            "byteOffset" : 1888464
        },
        {
            "buffer" : 0,
            "byteLength" : 58344,
            "byteOffset" : 1946832
        },
        {
            "buffer" : 0,
            "byteLength" : 788640,
            "byteOffset" : 2005176
        },
        {
            "buffer" : 0,
            "byteLength" : 788640,
            "byteOffset" : 2793816
        },
        {
            "buffer" : 0,
            "byteLength" : 1442400,
            "byteOffset" : 3582456
        }
    ],
    "buffers" : [
        {
            "byteLength" : 5024856,
            "uri" : "scene.bin"
        }
    ]
}
