<svg id="eW6smuHGehF1" xmlns="http://www.w3.org/2000/svg" xmlns:xlink="http://www.w3.org/1999/xlink" viewBox="0 0 500 500" shape-rendering="geometricPrecision" text-rendering="geometricPrecision"><g transform="translate(-2.076261-5.777008)"><g><path d="M218.389,165.49c-15.37-55.757-84.633-73.718-124.326-32.048-.57.598-1.139,1.207-1.709,1.825-56.907,61.86-30.024,214.303,88.74,252.94s242.294-31.918,249.234-94.99-47.852-82.89-132.882-65.254c-48.042,9.964-69.489-27.763-79.057-62.473Z" fill="#463ed4"/><path d="M317.184,175.027c-15.89,2.587-20.294,16.665-8.025,26.652c4.055,3.301,9.847,6.044,18.097,7.412c31.429,5.214,48.106-8.691,35.508-26.72-7.774-11.127-29.832-9.908-45.58-7.344Z" fill="#463ed4"/><path d="M71.265,288.974c-7.803-14.082-22.541-13.471-27.796,1.45-1.737,4.932-2.362,11.309-.863,19.537c5.709,31.342,24.431,42.342,37.144,24.395c7.847-11.077-.752-31.426-8.485-45.382Z" fill="#463ed4"/><path d="M441.528,300.547c-1.464,7.663,4.864,13.091,12.034,10.138c2.37-.976,4.76-2.858,6.887-6.166c8.101-12.602,3.998-23.412-7.281-22.302-6.963.685-10.19,10.736-11.64,18.33Z" fill="#463ed4"/><path d="M401.357,219.682c7.637,1.594,13.172-4.64,10.341-11.859-.936-2.386-2.776-4.808-6.047-6.991-12.462-8.314-23.34-4.396-22.423,6.9.566,6.973,10.561,10.371,18.129,11.95Z" fill="#463ed4"/><path d="M215.736,137.68c6.047,4.93,13.83,1.942,14.639-5.77.268-2.549-.252-5.547-2.152-8.99-7.238-13.117-18.699-14.644-23.083-4.193-2.706,6.452,4.604,14.068,10.596,18.953Z" fill="#463ed4"/></g><g><g><path d="M457.557,412.874c2.623.438,5.359-.296,7.186-2.228c1.191-1.259,2-2.814,1.999-4.304c0-.021,0-.043,0-.064-.035-10.689,13.098-9.978,17.314-23.047s-12.445-14.17-21.962-6.101c-6.842,5.802-15.054-2.303-25,4.464-8.635,5.873-3.826,20.334-17.99,15.813-4.523-1.445-8.573-.052-11.991,2.513-3.935,2.953-6.497,7.092-7.564,11.587l1.128.797c27.938,17.123,40.527-2.161,56.88.57Z" fill="#ff8e32"/><g><path d="M429.875,412.303l37.037-23.774c.496-.318.639-.979.321-1.474-.318-.496-.979-.639-1.474-.321l-39.833,25.569h3.949Z" fill="#5149ec"/></g></g><g><g><path d="M427.88,341.573c-1.563-23.303-1.821-47.739-.086-63.941c2.266-21.167,7.391-35.902,15.234-43.794.52-.523,1.365-.526,1.889-.006.523.52.526,1.366.006,1.889-13.711,13.797-18.641,50.844-14.286,107.21l-2.757-1.358Z" fill="#3a30f5"/></g><path d="M431.386,258.932c0,0-11.164-.018-10.366-19.645c0,0,17.081,4.873,10.366,19.645Z" fill="#5149ec"/><path d="M430.451,269.029c0,0-.604-11.148,19.038-11.443c0,0-3.916,17.326-19.038,11.443Z" fill="#5149ec"/><path d="M438.988,241.498c0,0-4.286-10.309,14.133-17.136.001,0,2.086,17.641-14.133,17.136Z" fill="#5149ec"/><path d="M427.944,289.286c0,0-10.512,3.76-16.4-14.981c0,0,17.723-1.192,16.4,14.981Z" fill="#5149ec"/><path d="M428.549,299.717c0,0-2.522-10.876,16.772-14.563c0,0-.861,17.742-16.772,14.563Z" fill="#5149ec"/><path d="M427.958,314.081c0,0-10.439,3.958-16.681-14.667c0,0,17.697-1.527,16.681,14.667Z" fill="#5149ec"/></g><g><path d="M103.982,393.508l-3.042-.12-1.613-.065-4.57-.183c0,0-42.238-71.705-15.778-95.089c8.146-7.199,22.387-1.23,19.239,31.856-2.918,30.671,5.764,63.601,5.764,63.601Z" fill="#5149ec"/><g><path d="M100.94,393.388l-1.613-.065c-7.374-17.374-11.096-36.037-12.944-49.137-2.194-15.555-2.296-26.85-2.296-26.962-.004-.403.321-.733.724-.734.403-.004.733.321.735.723.001.113.101,11.329,2.286,26.793c1.859,13.164,5.621,31.98,13.108,49.382Z" fill="#3a30f5"/></g></g><g><path d="M112.373,407.874l-4.131,1.534-2.192.813-6.209,2.302c0,0-96.395-72.28-74.066-118.269c6.874-14.158,29.229-14.118,43.458,31.847c13.191,42.608,43.14,81.773,43.14,81.773Z" fill="#ff8e32"/><g><path d="M108.242,409.408l-2.192.813c-19.534-19.106-34.907-41.971-44.675-58.446-11.599-19.563-18.029-34.598-18.09-34.748-.23-.537.021-1.158.558-1.384.537-.23,1.158.021,1.385.556.064.151,6.448,15.082,17.983,34.528c9.819,16.554,25.33,39.601,45.031,58.681Z" fill="#5149ec"/></g></g><g><path d="M441.867,411.964c-.047-1.666-.243-3.349-.608-5.019-3.466-15.864,5.962-18.857,18.393-23.867c12.427-5.011,13.906-19.894,5.105-32.261-8.803-12.37,7.013-22.311,1.19-40.926-5.824-18.615-26.05-6.233-30.475,10.928-3.179,12.339-19.35,9.669-25.338,25.671-5.202,13.891,12.232,26.721-7.903,33.089-6.431,2.031-9.986,6.967-11.848,12.744-2.143,6.651-1.722,13.553.725,19.64h50.759Z" fill="#5149ec"/><g><path d="M417.24,411.964l33.165-81.873c.314-.775-.061-1.659-.837-1.973-.775-.314-1.659.061-1.973.837L413.97,411.964h3.27Z" fill="#3a30f5"/></g></g></g><g><path d="M343.402,301.032c-9.748,6.998-24.999,11.798-24.999,11.798l-3.123-11.232-2.436-8.763-1.719-6.176-17.48-.012c.947,3.276,1.925,6.622,2.908,9.918c1.261,4.251,2.519,8.414,3.715,12.252c1.687,5.401,3.243,10.151,4.497,13.545.293.792.634,1.654,1.015,2.574c2.336,6.311,4.223,13.156,13.14,8.862c7.85-3.781,18.496-9.022,23.816-12.502l.666-20.264Z" fill="#ffa681"/><g><path d="M296.551,296.565c1.261,4.25,2.518,8.414,3.715,12.251c7.135-.756,12.075-4.292,15.014-7.218l-2.436-8.762-16.293,3.729Z" fill="#f97853"/><path d="M292.84,235.262c0,0,18.235,43.489,26.078,57.579c0,0-10.991,9.345-21.697,9.6c0,0-6.17-47.747-4.381-67.179Z" fill="#fb923c"/></g><g><g><g><path d="M250.145,411.974c.183-3.044.356-5.94.514-8.626.645-10.978,1.061-18.471,1.061-18.471l-4.299-.193-2.424-.109-29.229-1.298c0,0-.532,8.38-1.159,20.686-.128,2.518-.261,5.202-.394,8.01h35.93Z" fill="#ff8e32"/></g></g><path d="M247.42,384.685l4.299.193c0,0-.415,7.493-1.061,18.471-11.23.936-23.491,1.317-36.05.615.627-12.306,1.159-20.686,1.159-20.686l29.229,1.298l2.424.109Z" fill="#5149ec"/><g><path d="M245.885,411.974c.678-11.727,1.235-21.772,1.537-27.288l-2.424-.109c-.303,5.54-.862,15.631-1.542,27.397h2.429Z" fill="#5149ec"/></g></g><g><g><g><path d="M259.565,411.974h35.93c-.133-2.809-.265-5.492-.394-8.01-.627-12.306-1.159-20.686-1.159-20.686l-29.229,1.298-2.423.109-4.299.193c0,0,.415,7.493,1.06,18.471.158,2.685.331,5.582.514,8.625Z" fill="#ff8e32"/></g></g><path d="M262.29,384.685l-4.3.193c0,0,.415,7.493,1.061,18.471c11.23.936,23.491,1.317,36.05.615-.627-12.306-1.159-20.686-1.159-20.686l-29.229,1.298-2.423.109Z" fill="#5149ec"/><g><path d="M266.253,411.974c-.68-11.766-1.238-21.857-1.542-27.397l-2.424.109c.302,5.516.858,15.561,1.537,27.288h2.429Z" fill="#5149ec"/></g></g><g><g><g><g><path d="M209.424,362.437c-.004.602,0,1.196,0,1.781.013,10.69.066,18.974.119,23.041c10.325,2.797,20.649,4.604,30.978,5.439.471.035.932.07,1.403.105.251.018.501.035.752.048.554.04,1.112.075,1.662.101.616.04,1.227.07,1.847.101c7.027.325,14.053.198,21.085-.378c1.42-.119,2.832-.255,4.252-.409.092-.009.18-.018.273-.026.361-.04.721-.084,1.086-.128.22-.026.44-.053.655-.079c8.174-.976,16.349-2.572,24.528-4.775.022-1.847.031-4.586.031-8.038c0-.642,0-1.301-.004-1.992v-.004c-.004-4.938-.035-11.085-.088-18.033-.004-.594-.009-1.192-.013-1.799-.04-4.626-.088-9.581-.15-14.748-.009-.598-.013-1.196-.022-1.798-.066-5.299-.145-10.804-.237-16.393-.057-3.412-.119-6.855-.189-10.303-.07-3.491-.145-6.987-.229-10.461-.018-.756-.035-1.513-.057-2.269-.8-32.852-2.185-63.047-4.476-66.415-1.587-2.331-5.224-5.07-9.507-7.831-.523-.334-1.055-.673-1.596-1.011-1.825-1.139-16.709-6.196-18.6-7.308l-15.733-1.099c-.097.057-15.14,5.132-15.236,5.184-.646.369-1.302.743-1.948,1.117-5.571,3.214-11.068,6.6-14.234,9.516-.462.422-.875.835-1.227,1.24-.281.321-.532.633-.734.941-.189.277-.374.743-.55,1.381-1.904,6.917-2.902,34.1-3.399,63.676-.035,2.12-.066,4.252-.097,6.389-.013.937-.026,1.878-.04,2.819-.013.646-.022,1.297-.026,1.944-.004.325-.009.646-.013.972-.022,1.609-.04,3.214-.053,4.811-.013,1.183-.026,2.361-.04,3.54-.142,14.895-.186,29.362-.173,41.151Z" fill="#5149ec"/></g></g></g></g><g><g><path d="M181.29,404.678c-.387,4.199,4.727,1.922,3.28-6.587-1.442-8.508,2.656-16.212,4.424-15.966c1.772.251-1.464,9.291.11,12.55c1.57,3.258,3.601-3.074,5.624-6.913c2.098-3.988,1.974-12.69,1.02-18.899-.954-6.213,10.303-43.937,10.36-54.868l1.372-4.634l5.022-16.969l7.862-26.572c0,0-4.71-20.113-12.651-18.385c0,0-4.204,14.009-8.697,29.809-.761,2.682-1.53,5.417-2.291,8.144-3.201,11.455-6.209,22.764-7.607,29.474-3.694,17.716-3.979,54.543-3.979,54.543s-6.517,13.53-6.671,19.55c-.164,6.419,3.204,11.524,2.822,15.723Z" fill="#ffa681"/><path d="M196.724,285.386L207.48,309.36l5.022-16.969-13.486-15.148c-.762,2.682-1.531,5.417-2.292,8.143Z" fill="#f97853"/></g><path d="M196.191,278.245c4.718,8.091,9.516,16.138,14.295,24.198c1.574-5.272,3.206-10.333,4.736-14.986.004-.013.009-.022.013-.035.611-1.86,1.209-3.654,1.781-5.369.009-.031.018-.062.031-.088.198-.602.391-1.196.589-1.776v-.004c2.282-6.899,4.05-12.383,4.555-15.579c1.363-8.605-2.352-25.464-7.585-28.789v0c-.136.303-.549-.633-.795-.061-.919,2.124-5,7.37-7.019,12.479-.259.651-.523,1.328-.796,2.018-2.924,7.514-6.499,17.289-9.805,27.992Z" fill="#5149ec"/></g><g><g><g><path d="M254.363,233.488c6.813,0,11.616-6.216,11.817-6.481.287-.377.233-.931-.119-1.237s-.87-.249-1.157.127c-.062.081-4.534,5.832-10.541,5.832-5.936,0-9.557-6.508-9.592-6.574-.229-.419-.733-.561-1.124-.317-.392.244-.526.781-.298,1.201.165.304,4.12,7.449,11.014,7.449Z" fill="#fb923c"/></g></g><g><path d="M283.169,293.048c.126,0,.253-.031.374-.096.408-.221.572-.755.365-1.192l-2.971-6.279c-.206-.437-.705-.612-1.114-.39-.409.221-.572.755-.365,1.192l2.971,6.279c.145.309.437.486.74.486Z" fill="#fb923c"/></g><g><path d="M289.361,287.905c.107.071.23.117.365.13.456.043.859-.317.899-.805l.582-7.01c.041-.487-.296-.919-.753-.962-.456-.043-.859.317-.899.805l-.582,7.01c-.029.345.131.66.388.832Z" fill="#fb923c"/></g><g><path d="M273.398,277.036c.399,0,.75-.308.817-.742l1.073-6.943c.074-.483-.231-.94-.683-1.02-.453-.079-.879.247-.953.731l-1.073,6.943c-.074.483.231.94.683,1.02.046.007.092.011.136.011Z" fill="#fb923c"/></g><g><path d="M246.706,279.62c.144,0,.289-.04.422-.124.394-.249.525-.793.291-1.215l-3.352-6.055c-.233-.421-.742-.561-1.136-.311s-.525.793-.291,1.215l3.352,6.056c.154.279.431.434.714.434Z" fill="#fb923c"/></g><g><path d="M279.497,252.479c.154,0,.31-.046.449-.142l5.525-3.822c.385-.266.495-.815.246-1.226s-.762-.529-1.147-.263l-5.525,3.822c-.385.266-.495.815-.246,1.226.16.262.426.405.698.405Z" fill="#fb923c"/></g><g><path d="M254.885,308.894c.126,0,.253-.031.374-.096.408-.221.572-.755.365-1.192l-2.971-6.279c-.207-.437-.705-.612-1.114-.391-.408.221-.572.755-.365,1.192l2.971,6.279c.145.309.437.487.74.487Z" fill="#fb923c"/></g><g><path d="M267.939,257.203c.276,0,.546-.147.704-.416.243-.415.125-.963-.263-1.222l-5.577-3.734c-.388-.259-.9-.135-1.143.281-.243.415-.125.963.263,1.222l5.577,3.734c.137.091.289.135.439.135Z" fill="#fb923c"/></g><g><path d="M281.204,231.094c-.012.171.021.339.095.479.127.26.378.444.674.466.456.035.851-.334.884-.822l.263-4.041c-.522-.334-1.053-.673-1.595-1.011l-.321,4.929Z" fill="#fb923c"/></g><g><path d="M288.639,269.62c.276,0,.546-.147.704-.416.243-.415.125-.963-.263-1.222l-5.577-3.734c-.388-.259-.9-.135-1.143.281-.243.415-.125.962.263,1.222l5.577,3.734c.136.091.288.135.439.135Z" fill="#fb923c"/></g><g><path d="M244.162,238.98c.156,0,.315-.047.455-.146.382-.27.488-.819.236-1.228l-3.18-5.162c-.251-.409-.766-.523-1.148-.253s-.488.819-.236,1.229l3.18,5.162c.159.257.423.398.693.398Z" fill="#fb923c"/></g><g><path d="M241.311,328.147c.218,0,.435-.091.598-.273l4.557-5.077c.317-.353.306-.914-.024-1.253-.33-.34-.855-.328-1.172.026l-4.557,5.076c-.318.353-.306.914.024,1.254.161.165.368.247.574.247Z" fill="#fb923c"/></g><g><path d="M258.056,327.091c.218,0,.435-.091.598-.273l4.557-5.077c.318-.353.306-.914-.024-1.253-.331-.34-.855-.328-1.172.025l-4.557,5.077c-.317.353-.306.914.024,1.254.161.165.368.247.574.247Z" fill="#fb923c"/></g><g><path d="M270.095,361.406c.076-.218.073-.468-.029-.695l-2.845-6.346c-.198-.442-.693-.628-1.106-.416s-.587.741-.389,1.183l2.845,6.346c.198.442.693.628,1.106.416.202-.103.346-.282.418-.488Z" fill="#fb923c"/></g><g><path d="M222.041,382.344c.077-.218.073-.468-.029-.695l-2.845-6.346c-.198-.442-.693-.628-1.106-.416s-.587.741-.389,1.183l2.845,6.346c.198.442.693.628,1.106.416.202-.103.346-.281.418-.488Z" fill="#fb923c"/></g><g><path d="M242.676,392.854c.555.039,1.11.075,1.661.101l.58-3.953c.07-.484-.239-.937-.691-1.011-.452-.075-.876.255-.946.739l-.604,4.124Z" fill="#fb923c"/></g><g><path d="M236.058,380.907c.179-.133.308-.341.344-.59l1.018-6.953c.071-.484-.238-.937-.691-1.013s-.876.255-.947.739l-1.018,6.953c-.071.484.238.937.691,1.013.22.038.434-.022.603-.149Z" fill="#fb923c"/></g><g><path d="M276.067,322.775c.141,0,.284-.039.415-.12.396-.245.531-.788.302-1.212l-3.296-6.09c-.229-.424-.736-.568-1.133-.323-.396.245-.532.788-.302,1.212l3.296,6.091c.153.283.431.442.718.442Z" fill="#fb923c"/></g><g><path d="M266.388,307.551c.3,0,.59-.175.738-.48l3.016-6.254c.21-.435.05-.97-.357-1.195-.406-.226-.906-.054-1.117.382l-3.017,6.254c-.21.435-.05.97.357,1.194.122.067.252.099.38.099Z" fill="#fb923c"/></g><g><path d="M292.6,306.634c.086.11.197.193.312.246.28.123.608.079.855-.141l3.392-3.047c-.017-.756-.033-1.513-.053-2.269l-4.407,3.957c-.349.317-.395.875-.099,1.254Z" fill="#fb923c"/></g><g><path d="M266.431,241.2c.301,0,.59-.175.738-.48l3.017-6.254c.21-.435.05-.97-.357-1.195-.406-.225-.906-.054-1.117.382l-3.016,6.254c-.21.435-.05.97.357,1.195.12.067.25.098.378.098Z" fill="#fb923c"/></g><g><path d="M247.096,264.112c.052,0,.105-.005.158-.016.45-.093.744-.558.657-1.039l-1.248-6.909c-.087-.482-.522-.795-.971-.703-.45.093-.744.558-.657,1.039l1.248,6.909c.076.425.423.719.813.719Z" fill="#fb923c"/></g><g><path d="M257.861,270.179c.052,0,.105-.005.158-.016.45-.093.744-.558.657-1.039l-1.248-6.909c-.087-.482-.522-.794-.971-.703-.45.093-.744.558-.657,1.039l1.248,6.91c.076.424.423.718.813.718Z" fill="#fb923c"/></g><g><path d="M250.149,247.382c.275,0,.543-.145.701-.411l3.526-5.941c.245-.413.131-.962-.256-1.224-.388-.262-.899-.139-1.145.273l-3.526,5.941c-.245.413-.131.962.256,1.224.138.094.292.138.444.138Z" fill="#fb923c"/></g><g><path d="M282.495,308.649c.227-.259.295-.649.143-.989l-2.834-6.351c-.197-.442-.692-.629-1.105-.418-.415.211-.589.74-.391,1.182l2.834,6.351c.197.442.692.629,1.105.418.097-.048.18-.114.248-.193Z" fill="#fb923c"/></g><g><path d="M261.164,290.223c.331,0,.644-.214.772-.564l2.398-6.553c.167-.456-.043-.97-.47-1.149s-.908.046-1.074.503l-2.398,6.553c-.167.456.043.97.47,1.149.099.041.201.061.302.061Z" fill="#fb923c"/></g><g><path d="M234.818,330.699c.126,0,.253-.031.374-.096.408-.221.572-.755.365-1.192l-2.971-6.279c-.206-.437-.705-.612-1.114-.391-.408.221-.572.755-.365,1.192l2.971,6.279c.145.309.437.487.74.487Z" fill="#fb923c"/></g><g><path d="M278.483,375.827c.001.134.031.271.093.399.21.435.711.605,1.118.379l5.842-3.237c.406-.224.566-.76.355-1.195-.21-.435-.711-.604-1.118-.379l-5.842,3.237c-.288.158-.451.472-.448.796Z" fill="#fb923c"/></g><g><path d="M294.343,379.852c0,.136.029.273.091.4.21.435.711.602,1.118.378l2.541-1.407c0-.642,0-1.302-.004-1.992l-3.297,1.825c-.288.158-.453.474-.449.796Z" fill="#fb923c"/></g><g><path d="M269.795,387.678l1.998,4.564c.362-.039.724-.083,1.089-.128.218-.026.436-.053.654-.079l-2.241-5.11c-.193-.444-.686-.638-1.102-.427-.414.209-.595.736-.398,1.18Z" fill="#fb923c"/></g><g><path d="M224.036,314.686c.399,0,.75-.308.817-.742l1.073-6.943c.075-.483-.231-.94-.683-1.02-.453-.079-.878.247-.953.731l-1.073,6.943c-.074.483.231.94.683,1.02.045.007.091.011.136.011Z" fill="#fb923c"/></g><g><path d="M223.351,263.456c.144,0,.289-.04.421-.124.394-.249.525-.793.291-1.215l-3.352-6.055c-.233-.421-.742-.561-1.135-.311-.394.25-.525.793-.291,1.215l3.352,6.055c.155.28.431.435.714.435Z" fill="#fb923c"/></g><g><path d="M234.128,288.069c.154,0,.31-.046.449-.142l5.525-3.822c.385-.266.495-.815.246-1.226s-.762-.529-1.146-.263l-5.525,3.822c-.385.266-.495.815-.246,1.226.159.262.425.405.697.405Z" fill="#fb923c"/></g><g><path d="M292.627,329.349c.126,0,.253-.031.374-.096.408-.221.572-.755.365-1.192l-2.971-6.279c-.207-.437-.705-.612-1.114-.39-.409.221-.572.755-.365,1.191l2.971,6.279c.146.31.437.487.74.487Z" fill="#fb923c"/></g><g><path d="M224.715,297.607c.276,0,.546-.147.704-.416.243-.415.125-.963-.263-1.222l-5.577-3.734c-.388-.259-.9-.135-1.143.281-.243.415-.125.962.263,1.222l5.577,3.734c.136.091.289.135.439.135Z" fill="#fb923c"/></g><g><path d="M238.085,306.489c.203.2.495.288.781.205.442-.129.703-.616.583-1.088l-1.727-6.791c-.121-.472-.575-.752-1.018-.623-.442.129-.703.616-.583,1.088l1.727,6.791c.043.166.127.309.237.418Z" fill="#fb923c"/></g><g><path d="M214.547,234.814l1.443,2.339c.16.255.423.396.695.396.156,0,.312-.044.452-.145.382-.268.489-.818.238-1.227l-1.603-2.603c-.46.422-.872.835-1.225,1.24Z" fill="#fb923c"/></g><g><path d="M208.24,250.253l1.534,2.489c.16.259.423.4.695.4.156,0,.313-.048.456-.145.382-.273.485-.822.234-1.231l-2.175-3.531c-.242.65-.489,1.327-.744,2.018Z" fill="#fb923c"/></g><g><path d="M279.955,351.273c.218,0,.435-.091.598-.273l4.557-5.076c.317-.353.306-.914-.024-1.254s-.855-.328-1.172.026l-4.557,5.076c-.317.353-.306.914.024,1.254.16.165.367.247.574.247Z" fill="#fb923c"/></g><g><path d="M249.634,369.02c.218,0,.435-.091.598-.273l4.557-5.077c.317-.353.306-.914-.024-1.254s-.855-.328-1.172.026l-4.557,5.076c-.317.353-.306.914.024,1.254.161.166.368.248.574.248Z" fill="#fb923c"/></g><g><path d="M241.207,361.971c.137-.181.208-.419.178-.669l-.822-6.982c-.057-.486-.472-.83-.926-.769-.455.061-.777.504-.719.991l.822,6.982c.057.486.472.83.926.769.222-.03.411-.151.541-.322Z" fill="#fb923c"/></g><g><path d="M258.477,381.65c.218,0,.435-.091.598-.273l4.557-5.076c.317-.353.306-.914-.024-1.253-.33-.34-.855-.328-1.172.026l-4.557,5.077c-.318.353-.306.914.024,1.253.161.164.368.246.574.246Z" fill="#fb923c"/></g><g><path d="M209.424,362.439c-.004.602,0,1.196,0,1.781l5.143.462c.456.044.859-.321.896-.809.041-.488-.3-.915-.757-.959l-5.282-.475Z" fill="#fb923c"/></g><g><path d="M269.662,340.598c.218,0,.435-.092.598-.273l4.557-5.077c.317-.353.306-.914-.024-1.254-.331-.34-.855-.328-1.172.026l-4.557,5.076c-.317.353-.306.915.024,1.254.161.166.367.248.574.248Z" fill="#fb923c"/></g><g><path d="M247.738,338.392c.014.232.114.458.294.62l5.036,4.529c.35.315.873.267,1.168-.108.295-.376.25-.934-.101-1.249l-5.036-4.529c-.35-.315-.873-.267-1.168.108-.144.182-.207.408-.193.629Z" fill="#fb923c"/></g><g><path d="M223.743,363.304c.141,0,.284-.038.414-.119.396-.245.532-.788.302-1.212l-3.296-6.091c-.229-.424-.736-.568-1.133-.323-.396.245-.532.788-.302,1.212l3.296,6.091c.154.284.433.442.719.442Z" fill="#fb923c"/></g><g><path d="M218.037,345.201c.301,0,.59-.175.738-.48l3.017-6.254c.21-.435.05-.97-.357-1.194-.406-.226-.906-.054-1.117.381l-3.017,6.254c-.21.435-.05.97.357,1.195.121.066.251.098.379.098Z" fill="#fb923c"/></g><g><path d="M227.035,274.193c.3,0,.59-.175.738-.48l3.016-6.254c.21-.435.05-.97-.357-1.195-.406-.225-.906-.054-1.117.382l-3.016,6.254c-.21.435-.05.97.357,1.195.121.066.251.098.379.098Z" fill="#fb923c"/></g><g><path d="M223.741,247.948c.052,0,.105-.005.158-.016.45-.093.744-.558.657-1.039l-1.248-6.909c-.087-.481-.522-.795-.971-.703-.45.093-.744.558-.657,1.039l1.248,6.909c.077.425.424.719.813.719Z" fill="#fb923c"/></g><g><path d="M208.589,271.791c.052,0,.105-.005.158-.016.45-.093.744-.558.657-1.039l-1.248-6.909c-.087-.481-.522-.795-.971-.703-.45.093-.744.558-.657,1.039l1.248,6.909c.077.425.424.719.813.719Z" fill="#fb923c"/></g><g><path d="M234.506,254.015c.052,0,.105-.005.158-.016.45-.093.744-.558.657-1.039l-1.248-6.909c-.087-.482-.522-.794-.971-.703-.45.093-.744.558-.657,1.039l1.248,6.909c.076.424.424.719.813.719Z" fill="#fb923c"/></g><g><path d="M229.566,229.946c.16.039.317.026.46-.026.259-.097.469-.33.535-.633l1.394-6.345c-.645.369-1.299.743-1.949,1.117l-1.057,4.819c-.107.479.168.954.617,1.068Z" fill="#fb923c"/></g><g><path d="M210.597,282.474c.274,0,.543-.145.701-.411l3.526-5.941c.245-.414.131-.962-.255-1.224-.388-.262-.899-.139-1.145.273l-3.526,5.941c-.245.414-.131.962.255,1.224.138.093.292.138.444.138Z" fill="#fb923c"/></g><g><path d="M234.145,346.3c.227-.259.294-.649.143-.989l-2.833-6.351c-.197-.442-.692-.629-1.105-.418-.415.211-.589.741-.391,1.182l2.833,6.351c.197.442.692.63,1.105.418.096-.049.179-.115.248-.193Z" fill="#fb923c"/></g><g><path d="M292.465,358.235l5.538.959c-.004-.594-.008-1.192-.017-1.798l-5.254-.915c-.452-.075-.88.251-.95.734-.074.483.23.941.683,1.02Z" fill="#fb923c"/></g><g><path d="M294.15,342.009l3.688.638c-.008-.598-.012-1.196-.021-1.798l-3.4-.589c-.452-.079-.876.251-.95.734-.073.483.231.936.683,1.015Z" fill="#fb923c"/></g><g><path d="M212.813,327.873c.332,0,.645-.214.772-.564l2.398-6.553c.167-.456-.043-.97-.47-1.149s-.908.046-1.074.503l-2.398,6.553c-.167.456.044.97.47,1.149.1.041.202.061.302.061Z" fill="#fb923c"/></g></g><g><g><g><path d="M209.767,307.199c1.557-6.433,3.513-13.583,5.452-19.743.004-.013.009-.022.013-.035.598-1.904,1.196-3.711,1.781-5.369.009-.031.018-.061.031-.088.18-.523.365-1.029.545-1.521.026-.088.044-.172.044-.255v-.004c0-.295-.185-.572-.479-.682-.383-.136-.805.057-.941.44-1.988,5.417-4.336,13.218-6.35,20.869-.034,2.118-.065,4.251-.096,6.388Z" fill="#fb923c"/></g></g></g><g><path d="M233.541,182.998c0,0-5.774-6.363-3.595-13.766c2.179-7.402,8.14-7.321,8.14-7.321s3.478-7.873,9.401-8.133s11.507-10.779,16.896-7.922c5.39,2.857-.584,9.091-.584,9.091s9.234-9.74,12.279-6.883-4.228,10.519-4.228,10.519s7.759-5.454,10.308-3.377c2.549,2.078-6.08,11.039-6.08,11.039s5.583,10.065-.036,14.578l-42.501,2.175Z" fill="#403657"/><g><path d="M273.88,185.128c0,0,3.692-4.923,6.437-.852c2.745,4.07-1.136,16.093-7.857,13.158l1.42-12.306Z" fill="#f97853"/><g><path d="M273.928,193.719c.248,0,.476-.164.547-.415c1.042-3.712,4.887-5.217,4.926-5.231.293-.112.44-.44.329-.732-.111-.293-.439-.441-.731-.33-.18.068-4.417,1.713-5.617,5.987-.085.302.092.615.394.7.05.014.101.021.152.021Z" fill="#ea5143"/></g><g><path d="M277.809,191.849c.106,0,.212-.029.307-.09.264-.17.34-.521.17-.785-.028-.044-.709-1.082-2.132-1.718-.285-.129-.622,0-.75.286s0,.622.286.75c1.101.492,1.635,1.289,1.641,1.297.109.169.292.26.478.26Z" fill="#ea5143"/></g></g><g><path d="M235.832,185.128c0,0-3.692-4.923-6.437-.852-2.745,4.07,1.136,16.093,7.857,13.158l-1.42-12.306Z" fill="#f97853"/><g><path d="M235.785,193.719c-.248,0-.476-.164-.547-.415-1.041-3.712-4.887-5.217-4.926-5.231-.293-.112-.44-.44-.329-.732.111-.293.439-.441.731-.33.18.068,4.418,1.713,5.617,5.987.085.302-.091.615-.394.7-.05.014-.101.021-.152.021Z" fill="#ea5143"/></g><g><g><path d="M231.903,191.849c-.106,0-.212-.029-.307-.09-.264-.17-.34-.521-.17-.785.028-.044.708-1.082,2.132-1.718.285-.129.622,0,.75.286s0,.622-.286.75c-1.101.492-1.636,1.289-1.641,1.297-.108.169-.291.26-.478.26Z" fill="#ea5143"/></g></g></g><path d="M245.768,207.632v11.956c0,0,3.566,6.089,8.387,6.503c4.817.42,9.098-5.242,9.098-5.242v-12.377l-17.485-.84Z" fill="#ffa681"/><path d="M245.768,207.632v5.305c3.235,3.59,8.982,4.487,17.485,3.232v-7.696l-17.485-.841Z" fill="#f97853"/><path d="M233.165,176.928c.219,4.646.661,10.458,1.549,15.1v.013c0,.013.004.027.009.045c0,.005.004.005.004.009.219,1.134.464,2.201.732,3.16.161.562.335,1.151.531,1.754c2.834,8.891,9.4,21.759,25.901,15.872c6.949-2.477,10.569-9.654,12.413-17.438.107-.464.21-.924.299-1.366.062-.295.121-.58.174-.862l.08-.415c.013-.071.022-.12.027-.152.005-.018.005-.027.005-.027c1.089-5.985,1.254-12.038,1.174-16.363-.085-4.41-2.495-8.445-6.333-10.618-10.395-5.896-21.371-3.696-28.597-.919-5.018,1.924-8.227,6.847-7.968,12.207Z" fill="#ffa681"/><path d="M234.709,192.028c0,0,0,.004.004.013c0,.013.004.027.009.045c0,.005.004.005.004.009.107.388.687,2.517,1.263,4.914c2.834,8.891,9.4,21.759,25.901,15.872c6.949-2.477,10.569-9.654,12.413-17.438.107-.464.21-.924.299-1.366.062-.295.121-.58.174-.862l.08-.415c.013-.071.022-.12.027-.152.005-.018.005-.027.005-.027l-2.428-.491c-.464,2.299-1.491,4.463-2.75,6.387-2.053-4.919-12.471-1.651-12.471-1.651l-.049.018c-.634.196-1.285.299-1.942.299-.674,0-1.344-.107-1.995-.317c0,0-10.293-3.41-12.426,1.281-2.133-3.303-3.58-6.298-3.58-6.298l-2.535.179h-.003Zm20.514,7.066c11.779-1.589,9.927,4.753,9.927,4.753-1.308,1.192-2.504,2.062-3.307,2.513-2.571,1.433-5.102,1.977-6.936,1.888-1.808-.076-2.303.295-6.874-2.178-.808-.433-1.625-1.076-2.424-1.839c0,0,0,0-.004,0v-.004c-.197-1.241-2.192-7.164,9.618-5.133Z" fill="#403657"/><path d="M244.55,185.574c0,1.276.658,2.311,1.469,2.311s1.469-1.035,1.469-2.311-.658-2.311-1.469-2.311c-.812,0-1.469,1.035-1.469,2.311Z" fill="#403657"/><path d="M262.915,185.574c0,1.276.658,2.311,1.469,2.311.812,0,1.469-1.035,1.469-2.311s-.658-2.311-1.469-2.311-1.469,1.035-1.469,2.311Z" fill="#403657"/><path d="M240.788,177.782c0,0,6.071-2.399,10.745-.38l-.467,2.6c0,0-6.861-.58-10.317.82-.31-1-.356-2.012.039-3.04Z" fill="#403657"/><path d="M269.654,177.794c0,0-6.116-2.417-10.824-.383l.471,2.619c0,0,6.911-.585,10.393.827.312-1.008.357-2.027-.04-3.063Z" fill="#403657"/><g><g><path d="M254.659,195.902c-.958,0-1.909-.373-2.056-.433-.29-.118-.429-.45-.311-.74s.45-.43.74-.312c.513.208,1.745.535,2.278.215.103-.062.244-.184.279-.529.205-1.984-.338-8.632-.343-8.699-.026-.313.207-.587.52-.613.314-.026.587.207.613.519.023.278.557,6.821.341,8.909-.081.786-.494,1.188-.826,1.387-.363.22-.8.296-1.235.296Z" fill="#f97853"/></g></g><path d="M261.9,200.229c-.431,2.17-1.865,6.161-6.693,6.161-4.84,0-6.197-3.647-6.663-6.161h13.356Z" fill="#fff"/><path d="M233.163,176.926c.222,4.646.665,10.457,1.551,15.103l2.539-.18c0,0-.615-3.923-.899-6.479s-.766-7.334,1.415-7.93c2.175-.59.899-6.041,3.926-8.404c3.027-2.368,9.799-3.018,14.264-.269c4.464,2.743,9.495-.208,11.552.269c2.062.472,4.856,3.311,4.101,5.964-.761,2.647,1.511,4.26,2.062,7.003s-1.21,10.127-1.21,10.127l2.425.489c1.091-5.987,1.255-12.036,1.176-16.358-.085-4.413-2.493-8.446-6.333-10.621-10.4-5.896-21.373-3.698-28.598-.92-5.017,1.926-8.227,6.85-7.971,12.206Z" fill="#403657"/></g></g><g><g><g><g><g><path d="M337.683,304.865c-1.544,14.082-10.738,45.542-17.104,51.704-8.288,8.023-35.563,24.914-49.77,33.574-2.563,1.562,9.476,11.966,9.476,11.966s37.722-16.131,52.128-28.849c4.075-3.598,12.35-14.945,21.691-36.56c2.832-6.554,9.695-19.771,9.339-28.389-.41-9.919-16.168-8.287-25.76-3.446Z" fill="#5149ec"/></g></g><path d="M308.248,385.756c0,0-10.26,3.896-13.896,8.182s-8.441,7.922-7.273,9.61c1.169,1.688,6.493-3.247,6.493-3.247s1.46,5.425,6.623,6.01c5.164.585,14.935-9.517,14.935-9.517l-6.882-11.038Z" fill="#ffa681"/><g><g><path d="M409.522,344.183c.003.891-.005,1.945-.021,3.14-.016,1.19-.042,2.517-.078,3.969-.029.995-.06,2.047-.096,3.151-.034.93-.07,1.893-.109,2.893-.044,1.021-.091,2.073-.143,3.158-.714,14.748-2.441,35.111-6.239,51.436h-79.819c2.662-11.865,6.735-30.579,9.966-54.859.135-1.021.27-2.052.403-3.094s.262-2.093.392-3.153c.07-.564.138-1.133.205-1.701.055-.47.109-.938.161-1.4.148-1.309.283-2.597.403-3.86.101-1.055.195-2.091.283-3.114c1.369-16.324.886-28.558,2.852-35.885c2.291-8.53,29.002-18.309,29.002-18.309l16.735.875c0,0,15.956,5.21,24.485,12.698c8.532,7.491,1.397,29.841,1.605,42.532.008.437.01.946.013,1.523Z" fill="#ff8e32"/><g><path d="M409.501,347.323c-7.257.881-14.828,1.229-22.257,1.229-24.329,0-47.168-3.719-52.698-4.688.101-1.055.195-2.091.283-3.114c6.426,1.138,43.612,7.288,74.692,3.434.003.89-.004,1.944-.02,3.139Z" fill="#463ed4"/></g><g><path d="M409.423,351.292c-.029.995-.06,2.047-.096,3.151-7.205.865-14.714,1.205-22.083,1.205-25.703,0-49.742-4.151-53.467-4.823.07-.564.138-1.133.205-1.701.055-.47.109-.938.161-1.4c3.7.674,42.8,7.573,75.28,3.568Z" fill="#463ed4"/></g><g><path d="M409.218,357.336c-.044,1.021-.091,2.073-.143,3.158-7.496.953-15.345,1.325-23.041,1.325-24.885,0-48.207-3.888-53.051-4.748.135-1.021.27-2.052.403-3.094c5.76,1.027,44.173,7.502,75.832,3.359Z" fill="#463ed4"/></g><g><path d="M371.511,302.61c8.321,0,15.997-8.845,16.33-9.233.211-.246.182-.617-.064-.828-.245-.211-.616-.183-.828.063-.08.093-8.12,9.356-16.155,8.798-.321-.023-.604.222-.626.545-.023.323.221.604.545.626.266.02.533.029.798.029Z" fill="#5149ec"/></g><g><path d="M378.725,402.077c.294,0,.548-.221.582-.52.037-.322-.194-.613-.516-.651-21.494-2.474-30.398-39.68-30.486-40.055-.073-.316-.389-.512-.705-.439-.316.074-.512.389-.439.705.365,1.566,9.187,38.388,31.495,40.956.024.003.047.004.069.004Z" fill="#5149ec"/></g><g><path d="M370.166,390.819c.197,0,.389-.099.5-.279.17-.276.085-.638-.191-.808-11.432-7.049-13.132-17.438-13.148-17.542-.049-.32-.345-.544-.668-.492-.32.048-.541.347-.493.667.067.447,1.775,11.019,13.693,18.367.095.059.202.087.307.087Z" fill="#5149ec"/></g></g><g><circle r="23.547" transform="translate(376.841 247.88)" fill="#403657"/><path d="M353.679,243.658c0,0-6.668-1.841-5.789-8.313.748-5.508,7.219-1.937,6.65-6.242s-1.833-8.219,3.736-9.295c4.871-.941,4.953,2.397,11.35-2.446c7.557-5.721,13.362,7.527,20.107,7.925c9.948.587,11.203,6.213,12.182,10.714.978,4.501-2.851,7.657-2.851,7.657h-45.385Z" fill="#403657"/><g><path d="M357.25,254.469c0,0-3.73-4.973-6.503-.861s1.148,16.258,7.938,13.293l-1.435-12.432Z" fill="#f97853"/><g><path d="M357.202,263.148c-.251,0-.481-.166-.552-.419-1.053-3.75-4.937-5.27-4.976-5.285-.296-.113-.445-.444-.332-.74.112-.296.443-.445.739-.333.182.069,4.463,1.73,5.675,6.048.085.305-.092.622-.398.708-.053.014-.105.021-.156.021Z" fill="#ea5143"/></g><g><g><path d="M353.28,261.259c-.107,0-.214-.029-.31-.091-.267-.172-.343-.527-.172-.793.029-.044.716-1.093,2.154-1.736.288-.13.629,0,.758.289s0,.629-.289.758c-1.112.498-1.652,1.302-1.657,1.31-.11.171-.295.263-.484.263Z" fill="#ea5143"/></g></g></g><path d="M384.302,277.204v12.079c0,0-4.966,5.323-9.837,5.742-4.866.424-7.827-5.357-7.827-5.357v-11.615l17.664-.849Z" fill="#ffa681"/><path d="M384.302,277.204v5.359c-3.269,3.627-9.074,4.533-17.665,3.265v-7.775l17.665-.849Z" fill="#f97853"/><path d="M397.037,246.183c-.224,4.694-.672,10.564-1.567,15.258-.224,1.171-.476,2.273-.758,3.259-2.542,8.9-8.9,24.163-26.699,17.806-7.861-2.806-11.505-11.563-13.129-20.468-1.102-6.048-1.268-12.159-1.188-16.526.086-4.458,2.519-8.532,6.398-10.73c10.507-5.956,21.593-3.736,28.892-.93c5.067,1.945,8.309,6.92,8.051,12.331Z" fill="#ffa681"/><g><g><g><g><g><path d="M375.682,254.714v.953c0,1.919.748,3.72,2.11,5.072c1.341,1.334,3.114,2.065,4.999,2.065h.232c1.635-.035,3.121-.693,4.424-1.957c1.306-1.275,2.055-3.097,2.055-5.006v-1.126c0-.312-.059-.61-.166-.887-.125-.336-.319-.634-.568-.883-.454-.454-1.077-.734-1.77-.734h-8.81c-.997,0-1.857.582-2.259,1.427-.149.308-.236.651-.243,1.011-.004.02-.004.045-.004.065Zm1.039,0c0-.81.658-1.465,1.465-1.465h8.81c.811,0,1.466.655,1.466,1.465v1.126c0,1.628-.634,3.184-1.743,4.261-1.105,1.074-2.356,1.632-3.717,1.663h-.212c-1.607,0-3.121-.624-4.268-1.763-1.16-1.154-1.801-2.692-1.801-4.334v-.953Z" fill="#403657"/></g></g></g><g><g><g><path d="M358.042,254.714v.953c0,1.919.752,3.72,2.11,5.072c1.341,1.334,3.114,2.065,4.999,2.065h.235c1.632-.035,3.121-.693,4.421-1.957c1.306-1.275,2.058-3.097,2.058-5.006v-1.126c0-.017,0-.031-.004-.048-.004-.339-.08-.665-.211-.96-.388-.883-1.268-1.496-2.29-1.496h-8.813c-.772,0-1.465.353-1.926.904-.222.27-.391.586-.482.928-.066.214-.097.439-.097.671Zm1.04,0c0-.81.658-1.465,1.465-1.465h8.813c.807,0,1.465.655,1.465,1.465v1.126c0,1.628-.637,3.184-1.742,4.261-1.105,1.074-2.356,1.632-3.717,1.663h-.215c-1.608,0-3.121-.624-4.265-1.763-1.164-1.154-1.805-2.692-1.805-4.334v-.953Z" fill="#403657"/></g></g></g><g><g><path d="M395.78,251.79c-2.992-.129-5.129.734-5.974,1.155-.236.114-.866.524-.893.541l.495.882c.007-.004.696-.415.966-.54.829-.387,2.669-1.163,5.406-1.002v-1.036Z" fill="#403657"/></g></g><g><g><path d="M376.38,254.753l.341-.982c-.061-.021-1.52-.523-3.123-.523-1.706,0-2.804.524-2.851.546l.454.935c.008-.004.945-.442,2.397-.442c1.422.001,2.769.462,2.782.466Z" fill="#403657"/></g></g><g><g><path d="M354.403,252.04v1.042c2.152.178,4.14,1.139,4.169,1.151l.457-.932c-.117-.059-2.251-1.088-4.626-1.261Z" fill="#403657"/></g></g></g></g><path d="M366.198,256.046c0,1.289-.664,2.335-1.484,2.335s-1.484-1.045-1.484-2.335c0-1.289.665-2.335,1.484-2.335s1.484,1.045,1.484,2.335Z" fill="#403657"/><path d="M383.578,256.046c0,1.289-.665,2.335-1.484,2.335-.82,0-1.484-1.045-1.484-2.335c0-1.289.665-2.335,1.484-2.335.82,0,1.484,1.045,1.484,2.335Z" fill="#403657"/><path d="M359.886,248.876c0,0,6.178-2.442,10.935-.386l-.397,2.208c0,0-5.152-1.15-10.197.731-.315-1.018-.743-1.506-.341-2.553Z" fill="#403657"/><path d="M388.158,248.876c0,0-6.178-2.442-10.936-.386l.397,2.208c0,0,5.152-1.15,10.197.731.315-1.018.744-1.506.342-2.553Z" fill="#403657"/><g><g><path d="M374.315,265.83c.968,0,1.928-.377,2.077-.437.293-.12.433-.454.314-.748-.119-.293-.455-.434-.748-.315-.518.21-1.762.54-2.302.217-.104-.063-.246-.186-.282-.534-.207-2.004.341-8.72.347-8.788.026-.316-.209-.593-.524-.619-.317-.027-.593.209-.619.525-.023.281-.563,6.891-.345,9c.082.794.499,1.2.834,1.401.368.22.809.298,1.248.298Z" fill="#f97853"/></g></g><path d="M367.202,268.743c.469,2.359,2.027,6.7,7.279,6.7c5.264,0,6.74-3.967,7.247-6.7h-14.526Z" fill="#fff"/><g><path d="M374.41,278.439c1.485,0,2.744-.752,2.797-.784.271-.164.358-.517.193-.788-.164-.272-.517-.358-.788-.194-.009.006-1.046.618-2.203.618-1.062,0-2.078-.609-2.088-.616-.269-.166-.623-.083-.789.187-.167.269-.083.623.187.789.051.033,1.289.788,2.691.788Z" fill="#f97853"/></g><path d="M356.66,258.297c-.433-2.366-.862-5.421-.55-6.986.559-2.771,2.853-4.4,2.088-7.071-.765-2.682,2.059-5.553,4.141-6.029c2.076-.482,6.935.553,11.718-1.718c4.565-2.17,12.5-.618,13.794,2.312c1.565,3.547-.565,3.882,3.706,7.718c1.7,1.529-.318,5.5-.606,8.082-.129,1.188-.148,1.768-.101,3.044l.017.648h5.111c.563-4.005.885-8.421,1.061-12.116.259-5.412-2.988-10.382-8.053-12.329-7.3-2.806-18.382-5.029-28.894.929-3.876,2.2-6.312,6.27-6.394,10.729-.065,3.463.027,8.026.619,12.786h2.343Z" fill="#403657"/><g><path d="M393.712,260.505c-.016-1.337.079-2.674.312-3.99.319-1.8.841-3.434,2.684-4.184c1.482-.604,3.065-.616,4.191,1.055c2.773,4.112-.316,16.909-7.106,13.944l-.081-6.825Z" fill="#ffa681"/><g><g><path d="M395.106,263.604c.246-.049.439-.257.46-.519.298-3.883,3.81-6.134,3.845-6.157.268-.169.349-.523.181-.791s-.522-.35-.79-.182c-.165.103-4.038,2.57-4.381,7.042-.024.316.212.592.529.616.053.004.106,0,.156-.009Z" fill="#f97853"/></g></g><g><g><path d="M398.582,260.983c.105-.021.204-.071.286-.15.228-.22.233-.584.013-.811-.037-.038-.916-.932-2.452-1.281-.307-.071-.616.123-.686.432-.071.309.123.616.432.687c1.188.27,1.875.954,1.882.96.141.146.34.2.525.163Z" fill="#f97853"/></g></g></g></g></g><g><path d="M404.51,297.509c-8.386,12.711-40.482,56.657-47.724,61.762-9.427,6.646-35.126,16.096-49.881,25.948-5.013,3.348,6.831,12.821,6.831,12.821s35.966-10.111,52.164-20.451c4.582-2.925,23.64-22.016,35.791-38.949c4.163-5.801,10.934-13.858,11.914-22.427c1.127-9.863-1.971-15.14-9.095-18.704Z" fill="#5149ec"/></g></g></g><g><path d="M340.897,411.93h-99.984c-1.278,0-2.314-1.036-2.314-2.314v-7.967c0-1.278,1.036-2.314,2.314-2.314h99.984c1.278,0,2.314,1.036,2.314,2.314v7.967c-.001,1.278-1.036,2.314-2.314,2.314Z" fill="#1a0b42"/><path d="M238.621,411.93l-19.663-73.639c-1.104-4.136,2.013-8.195,6.294-8.195h43.268c2.919,0,5.482,1.942,6.272,4.753l21.652,77.081h-57.823Z" fill="#403657"/><path d="M274.794,334.85l21.472,76.446h4.944L279.738,334.85c-.795-2.812-3.354-4.756-6.274-4.756h-4.944c2.92-.001,5.479,1.944,6.274,4.756Z" fill="#1a0b42"/><path d="M263.67,374.31c1.124,4.857-1.902,8.795-6.759,8.795s-9.706-3.937-10.83-8.795c-1.124-4.857,1.902-8.795,6.759-8.795s9.706,3.938,10.83,8.795Z" fill="#614c6e"/></g></g><g><g><g><g><path d="M397.747,140.706c-3.641,0-6.603-2.962-6.603-6.603s2.962-6.603,6.603-6.603s6.603,2.962,6.603,6.603-2.962,6.603-6.603,6.603Zm0-11.136c-2.499,0-4.532,2.033-4.532,4.532s2.033,4.532,4.532,4.532s4.532-2.033,4.532-4.532c-.001-2.499-2.034-4.532-4.532-4.532Z" fill="#5149ec"/></g><g><path d="M421.518,163.872c-3.641,0-6.603-2.962-6.603-6.603s2.962-6.603,6.603-6.603s6.603,2.962,6.603,6.603-2.962,6.603-6.603,6.603Zm0-11.135c-2.499,0-4.532,2.033-4.532,4.532s2.033,4.532,4.532,4.532s4.532-2.033,4.532-4.532-2.033-4.532-4.532-4.532Z" fill="#ff8e32"/></g><g><g><g><path d="M429.677,185.33c-.572,0-1.036-.464-1.036-1.036v-4.568c0-.572.464-1.036,1.036-1.036s1.036.464,1.036,1.036v4.568c-.001.572-.464,1.036-1.036,1.036Z" fill="#5149ec"/></g><g><path d="M429.677,193.323c-.572,0-1.036-.464-1.036-1.036v-4.568c0-.572.464-1.036,1.036-1.036s1.036.464,1.036,1.036v4.568c-.001.573-.464,1.036-1.036,1.036Z" fill="#5149ec"/></g></g><g><g><path d="M436.088,187.043h-4.103c-.572,0-1.036-.464-1.036-1.036s.464-1.036,1.036-1.036h4.103c.572,0,1.036.464,1.036,1.036s-.464,1.036-1.036,1.036Z" fill="#5149ec"/></g><g><path d="M427.368,187.043h-4.103c-.572,0-1.036-.464-1.036-1.036s.464-1.036,1.036-1.036h4.103c.572,0,1.036.464,1.036,1.036s-.464,1.036-1.036,1.036Z" fill="#5149ec"/></g></g></g><g><g><g><g><path d="M393.215,159.734c-.572,0-1.036-.464-1.036-1.036v-4.568c0-.572.464-1.036,1.036-1.036s1.036.464,1.036,1.036v4.568c0,.572-.464,1.036-1.036,1.036Z" fill="#3a30f5"/></g><g><path d="M393.215,167.728c-.572,0-1.036-.464-1.036-1.036v-4.568c0-.572.464-1.036,1.036-1.036s1.036.464,1.036,1.036v4.568c0,.572-.464,1.036-1.036,1.036Z" fill="#3a30f5"/></g></g><g><g><path d="M399.627,161.447h-4.103c-.572,0-1.036-.464-1.036-1.036s.464-1.036,1.036-1.036h4.103c.572,0,1.036.464,1.036,1.036-.001.572-.464,1.036-1.036,1.036Z" fill="#3a30f5"/></g><g><path d="M390.907,161.447h-4.103c-.572,0-1.036-.464-1.036-1.036s.464-1.036,1.036-1.036h4.103c.572,0,1.036.464,1.036,1.036-.001.572-.464,1.036-1.036,1.036Z" fill="#3a30f5"/></g></g></g></g></g></g><g><g><g><path d="M91.296,110.388c0-3.641,2.962-6.603,6.603-6.603s6.603,2.962,6.603,6.603-2.962,6.603-6.603,6.603c-3.641.001-6.603-2.962-6.603-6.603Zm2.072,0c0,2.499,2.033,4.532,4.532,4.532s4.532-2.033,4.532-4.532-2.033-4.532-4.532-4.532-4.532,2.033-4.532,4.532Z" fill="#5149ec"/></g><g><path d="M64.778,135.558c0-3.641,2.962-6.604,6.603-6.604s6.603,2.962,6.603,6.604-2.962,6.603-6.603,6.603-6.603-2.962-6.603-6.603Zm2.071,0c0,2.499,2.033,4.532,4.532,4.532s4.532-2.033,4.532-4.532-2.033-4.532-4.532-4.532-4.532,2.033-4.532,4.532Z" fill="#ff8e32"/></g><g><g><g><path d="M51.049,144.824c.572,0,1.036-.464,1.036-1.036v-4.568c0-.572-.464-1.036-1.036-1.036s-1.036.464-1.036,1.036v4.568c0,.572.464,1.036,1.036,1.036Z" fill="#5149ec"/></g><g><path d="M51.049,152.818c.572,0,1.036-.464,1.036-1.036v-4.568c0-.572-.464-1.036-1.036-1.036s-1.036.464-1.036,1.036v4.568c0,.572.464,1.036,1.036,1.036Z" fill="#5149ec"/></g></g><g><g><path d="M44.638,146.537h4.103c.572,0,1.036-.464,1.036-1.036s-.464-1.036-1.036-1.036h-4.103c-.572,0-1.036.464-1.036,1.036s.464,1.036,1.036,1.036Z" fill="#5149ec"/></g><g><path d="M53.358,146.537h4.103c.572,0,1.036-.464,1.036-1.036s-.464-1.036-1.036-1.036h-4.103c-.572,0-1.036.464-1.036,1.036s.464,1.036,1.036,1.036Z" fill="#5149ec"/></g></g></g><g><g><g><g><path d="M74.916,109.711c.572,0,1.036-.464,1.036-1.036v-4.568c0-.572-.464-1.036-1.036-1.036s-1.036.464-1.036,1.036v4.568c.001.572.465,1.036,1.036,1.036Z" fill="#3a30f5"/></g><g><path d="M74.916,117.705c.572,0,1.036-.464,1.036-1.036v-4.568c0-.572-.464-1.036-1.036-1.036s-1.036.464-1.036,1.036v4.568c.001.572.465,1.036,1.036,1.036Z" fill="#3a30f5"/></g></g><g><g><path d="M68.505,111.424h4.103c.572,0,1.036-.464,1.036-1.036s-.464-1.036-1.036-1.036h-4.103c-.572,0-1.036.464-1.036,1.036s.464,1.036,1.036,1.036Z" fill="#3a30f5"/></g><g><path d="M77.225,111.424h4.103c.572,0,1.036-.464,1.036-1.036s-.464-1.036-1.036-1.036h-4.103c-.572,0-1.036.464-1.036,1.036s.464,1.036,1.036,1.036Z" fill="#3a30f5"/></g></g></g></g></g></g><g><path d="M346.03,117.399v20.107c0,2.658-2.156,4.814-4.814,4.814h-36.509l-11.022,3.954c-1.132.407-2.215-.706-1.781-1.826l4.169-10.767v-16.283c0-2.658,2.156-4.814,4.816-4.814h40.326c2.658,0,4.815,2.157,4.815,4.815Z" fill="#ff8e32"/><g opacity="0.5"><path d="M338.333,123.087h-33.493c-.734,0-1.329-.595-1.329-1.329v0c0-.734.595-1.328,1.329-1.328h33.493c.734,0,1.329.595,1.329,1.328v0c0,.735-.595,1.329-1.329,1.329Z" fill="#463ed4"/><path d="M338.333,128.438h-33.493c-.734,0-1.329-.595-1.329-1.329v0c0-.734.595-1.328,1.329-1.328h33.493c.734,0,1.329.595,1.329,1.328v0c0,.734-.595,1.329-1.329,1.329Z" fill="#463ed4"/><path d="M338.333,133.788h-33.493c-.734,0-1.329-.595-1.329-1.328v0c0-.734.595-1.329,1.329-1.329h33.493c.734,0,1.329.595,1.329,1.329v0c0,.733-.595,1.328-1.329,1.328Z" fill="#463ed4"/></g></g></g><g><path d="M453.721,419.45v.719c0,4.145-3.361,7.506-7.509,7.506h-389.434c-4.147,0-7.506-3.361-7.506-7.506v-.719c0-4.145,3.359-7.506,7.506-7.506h389.434c4.148,0,7.509,3.361,7.509,7.506Z" fill="#3a30f5"/><path d="M453.721,419.45v.359h-404.449v-.359c0-4.145,3.359-7.506,7.506-7.506h389.434c4.148,0,7.509,3.361,7.509,7.506Z" fill="#5149ec"/></g></g></svg>
