<?xml version="1.0" encoding="UTF-8" standalone="no" ?>
<!DOCTYPE svg PUBLIC "-//W3C//DTD SVG 1.1//EN" "http://www.w3.org/Graphics/SVG/1.1/DTD/svg11.dtd">
<svg xmlns="http://www.w3.org/2000/svg" xmlns:xlink="http://www.w3.org/1999/xlink" version="1.1" width="600" height="600" viewBox="0 0 600 600" xml:space="preserve">
<desc>Created with Fabric.js 5.2.4</desc>
<defs>
</defs>
<rect x="0" y="0" width="100%" height="100%" fill="transparent"></rect>
<g transform="matrix(1 0 0 1 300 300)" id="5e48568e-a2eb-418b-bda2-a6f7b18153a1"  >
<rect style="stroke: none; stroke-width: 1; stroke-dasharray: none; stroke-linecap: butt; stroke-dashoffset: 0; stroke-linejoin: miter; stroke-miterlimit: 4; fill: rgb(76,73,188); fill-rule: nonzero; opacity: 1;" vector-effect="non-scaling-stroke"  x="-300" y="-300" rx="0" ry="0" width="600" height="600" />
</g>
<g transform="matrix(Infinity NaN NaN Infinity 0 0)" id="ae70379c-89d2-45f2-a0cd-bc1f81603859"  >
</g>
<g transform="matrix(2 0 0 2 619.7 605)" id="5"  >
<rect style="stroke: none; stroke-width: 1; stroke-dasharray: none; stroke-linecap: butt; stroke-dashoffset: 0; stroke-linejoin: miter; stroke-miterlimit: 4; fill: rgb(255,255,255); fill-rule: nonzero; opacity: 1; visibility: hidden;" vector-effect="non-scaling-stroke"  x="-150" y="-30" rx="0" ry="0" width="300" height="60" />
</g>
<g transform="matrix(1.67 0 0 1.67 347.66 571.81)"  >
<rect style="stroke: none; stroke-width: 1; stroke-dasharray: none; stroke-linecap: butt; stroke-dashoffset: 0; stroke-linejoin: miter; stroke-miterlimit: 4; fill: rgb(255,255,255); fill-opacity: 0; fill-rule: nonzero; opacity: 1;" vector-effect="non-scaling-stroke"  x="-50" y="-50" rx="0" ry="0" width="100" height="100" />
</g>
<g transform="matrix(0.6 0 0 0.6 -50.1 274.52)"  >
<rect style="stroke: none; stroke-width: 1; stroke-dasharray: none; stroke-linecap: butt; stroke-dashoffset: 0; stroke-linejoin: miter; stroke-miterlimit: 4; fill: rgb(255,255,255); fill-opacity: 0; fill-rule: nonzero; opacity: 1;" vector-effect="non-scaling-stroke"  x="-50" y="-50" rx="0" ry="0" width="100" height="100" />
</g>
<g transform="matrix(0.6 0 0 0.6 614.7 600)" id="4221"  >
<rect style="stroke: none; stroke-width: 1; stroke-dasharray: none; stroke-linecap: butt; stroke-dashoffset: 0; stroke-linejoin: miter; stroke-miterlimit: 4; fill: rgb(255,255,255); fill-rule: nonzero; opacity: 1; visibility: hidden;" vector-effect="non-scaling-stroke"  x="-540" y="-540" rx="0" ry="0" width="1080" height="1080" />
</g>
<g transform="matrix(6.03 0 0 6.03 300 141.63)"  >
<path style="stroke: none; stroke-width: 1; stroke-dasharray: none; stroke-linecap: butt; stroke-dashoffset: 0; stroke-linejoin: miter; stroke-miterlimit: 4; fill: rgb(247,247,247); fill-rule: nonzero; opacity: 1;" vector-effect="non-scaling-stroke"  transform=" translate(-35.82, -13.03)" d="M 9.6777 6.074 L 9.6777 8.1541 L 6.2402 8.1541 L 6.2402 20.0001 L 3.916 20.0001 L 3.916 8.1541 L 0.4687000000000001 8.1541 L 0.4687000000000001 6.074 L 9.6777 6.074 z M 17.109384375 20.18555 C 14.150384375000002 20.18555 11.845684375000001 18.535149999999998 11.845684375000001 15.25395 L 11.845684375000001 6.074249999999999 L 14.189484375000001 6.074249999999999 L 14.189484375000001 14.93165 C 14.189484375000001 17.14845 15.468784375000002 18.09575 17.109384375 18.09575 C 18.749984375 18.09575 20.048884375 17.13872 20.048884375 14.93165 L 20.048884375 6.074249999999999 L 22.382884375 6.074249999999999 L 22.382884375 15.25395 C 22.382884375 18.535249999999998 20.078184375 20.18555 17.109484375 20.18555 z M 41.43603125 20 L 39.12153125 20 L 38.20356125 9.004 L 34.20946125 20 L 32.74466125 20 L 28.77006125 9.023 L 27.84233125 20 L 25.51813125 20 L 26.63143125 6.074 L 29.883431249999997 6.074 L 33.46743125 15.9178 L 37.08073125 6.074 L 40.33273125 6.074 z M 50.92769375 20.18555 C 46.92379375 20.18555 43.89639375 17.44145 43.89639375 13.027349999999998 C 43.89639375 8.62305 46.92369375 5.878949999999999 50.92769375 5.878949999999999 C 54.921793750000006 5.878949999999999 57.949193750000006 8.62305 57.949193750000006 13.027349999999998 C 57.949193750000006 17.44145 54.92189375000001 20.18555 50.92769375 20.18555 z M 50.92769375 18.0176 C 53.56439375 18.0176 55.62499375 16.1914 55.62499375 13.027400000000002 C 55.62499375 9.892600000000002 53.564493750000004 8.056700000000003 50.92769375 8.056700000000003 C 48.29089375 8.056700000000003 46.230393750000005 9.892600000000003 46.230393750000005 13.027400000000004 C 46.230393750000005 16.191500000000005 48.29089375 18.0176 50.92769375 18.0176 z M 68.427775 20 L 64.814475 13.789100000000001 L 63.310575 13.789100000000001 L 63.310575 20 L 60.976575 20 L 60.976575 6.074 L 65.810575 6.074 C 68.828175 6.074 70.156275 7.880599999999999 70.156275 10.117 C 70.156275 12.060400000000001 69.003975 13.369 67.15827499999999 13.701 L 71.17197499999999 19.9998 L 68.42787499999999 19.9998 z M 63.310575 8.047 L 63.310575 12.0607 L 65.468775 12.0607 C 67.177775 12.0607 67.910175 11.259920000000001 67.910175 10.0685 C 67.910175 8.8869 67.17775499999999 8.047 65.468775 8.047 L 63.31057499999999 8.047 z" stroke-linecap="round" />
</g>
<g transform="matrix(2.99 0 0 2.99 300 277.27)"  >
<path style="stroke: rgb(245,130,31); stroke-width: 1; stroke-dasharray: none; stroke-linecap: butt; stroke-dashoffset: 0; stroke-linejoin: miter; stroke-miterlimit: 4; fill: rgb(245,130,31); fill-rule: nonzero; opacity: 1;" vector-effect="non-scaling-stroke"  transform=" translate(-31.92, -31.5)" d="M 5.346 40.274 C 6.606 41.169000000000004 7.261 41.695 7.1850000000000005 42.96 C 7.02102742705982 43.967906264323595 6.566839212980394 44.90616806846625 5.878 45.660000000000004 C 5.379291689290984 46.29451184293037 4.950791712137755 46.9811847327659 4.599999999999996 47.708000000000006 C 3.9247057970682655 49.09587764830824 3.8651729492747053 50.70399054907331 4.436000000000001 52.138 C 5.448 54.402 8.072 55.248 10.245000000000001 55.067 C 11.410452282256118 54.93260350536992 12.553414341712802 54.646862990505745 13.645000000000003 54.217 C 15.196000000000002 53.677 16.534000000000002 53.208999999999996 18.04 53.696999999999996 C 18.77352835451965 53.993541963845054 19.447119445900146 54.4208047235185 20.028000000000002 54.958 C 20.738878816793903 55.594869671583005 21.54971058457926 56.110423537266534 22.427999999999994 56.484 C 23.95274253639103 57.05174670651414 25.565993380177517 57.34494192807114 27.192999999999994 57.35 C 29.661193299662084 57.47556448158432 32.06540104756841 56.54037242586777 33.8 54.78 C 34.1512602931737 54.38426148348814 34.41561729105584 53.919252073553714 34.576 53.415 L 35.368 53.8 C 36.873983234783275 54.55295914493632 38.4396513634072 55.18009602619456 40.049 55.675 L 47.755 58.046 C 49.807940903879924 58.67823040694757 51.943912106604344 58.99978895632411 54.09199999999999 59.00000000000001 C 57.01028145958634 59.00139148952705 59.69213880106793 57.39545205193809 61.06870428963753 54.82223692892805 C 62.445269778207134 52.249021805918 62.29277595484961 49.12681971266714 60.672 46.7 L 59.913999999999994 45.563 C 56.78948326086092 40.87631662773557 55.880580969773916 35.054004083262356 57.42799999999999 29.638000000000012 L 58.742999999999995 25.038000000000004 C 59.24955176855022 23.26378501385279 58.67887320042805 21.35692982275814 57.28093595217813 20.152685262360976 C 55.882998703928216 18.948440701963808 53.91266856315696 18.666359358576994 52.233 19.430000000000003 C 49.960504975675406 20.467454161050824 47.491106502386806 21.002945266446282 44.992999999999995 21 C 42.98784185679431 21.006369415368226 41.18330311979768 19.784298326988804 40.445 17.92 C 40.16435277758328 17.213803303371474 40.05006754346913 16.452472028209872 40.111 15.695 L 40.625 9.539000000000001 C 40.74354110454311 8.113880392061448 40.2600813059668 6.704211808394872 39.29185021056819 5.651811487081515 C 38.32361911516959 4.5994111657681565 36.95904116654352 4.000390369184729 35.529 4 C 33.91225697724753 3.9995171435094505 32.39050015508263 4.763567864220336 31.425157381929274 6.060476328642479 C 30.459814608775925 7.357384793064622 30.1645893674051 9.034393852814087 30.629000000000005 10.583000000000002 C 31.440824127317644 13.277059729884652 31.00502616318007 16.19301765659305 29.44100000000001 18.531999999999996 L 28.2 20.4 C 27.052766864462036 20.34709712528694 25.91102842344994 20.588042831861692 24.882999999999996 21.099999999999998 C 24.195945726760943 21.49276862903961 23.555826355817235 21.96245789493122 22.974999999999998 22.499999999999996 C 22.645 22.783999999999995 22.313999999999997 23.068999999999996 21.961999999999996 23.320999999999998 C 20.767210206677035 24.157859084100796 19.247797270406707 24.38243572785197 17.861999999999995 23.927 C 16.976492276466946 23.606065456888558 16.328804468356935 22.837983915035743 16.161999999999995 21.911 C 16.05488471949353 21.111963434637023 16.096244879705296 20.30001602720108 16.283999999999995 19.516 C 16.51150844310294 18.514794372721948 16.553536490653812 17.480362105582717 16.407999999999994 16.464 C 16.098551460926014 15.037415146345909 15.158380815017729 13.828361580970114 13.851999999999991 13.177000000000001 C 12.455904676194068 12.415119817707387 10.792617084423837 12.316114603911538 9.31599999999999 12.907000000000004 C 6.283999999999994 14.207000000000004 6.162999999999993 16.788000000000004 6.064999999999994 18.861000000000004 C 5.994999999999994 20.361000000000004 5.933999999999994 21.651000000000003 5.019999999999994 22.561000000000003 C 3.1448940088232105 24.584681738431645 2.0740536153417075 27.223906766670183 2.008999999999995 29.982000000000003 L 1.990999999999994 30.207000000000004 C 1.779999999999994 32.793000000000006 1.517999999999994 36.007000000000005 3.199999999999994 38.33800000000001 C 3.801959216385835 39.09887218692102 4.52737213000875 39.75329874832548 5.3459999999999965 40.274 Z M 31.107 19.641 C 33.00292870822568 16.80672924516245 33.53120063372608 13.272810176867079 32.547 10.007999999999997 C 32.187238184259506 8.808087097960042 32.58150340542 7.509416805224003 33.54762786668474 6.712031664973221 C 34.51375232794948 5.914646524722437 35.86362378166341 5.773803873866647 36.97354250620748 6.354579184510365 C 38.083461230751546 6.935354495154085 38.73731707224859 8.124666116383791 38.632999999999996 9.373 L 38.117999999999995 15.53 C 38.0309970526629 16.59701766342716 38.19220606616806 17.669690802121853 38.58899999999999 18.664 C 39.62901963904106 21.28863852351077 42.16983016750592 23.0089624540891 44.993 23 C 47.77736536612264 23.00409185178588 50.52989042426569 22.407881963107556 53.063 21.251999999999995 C 54.032575577289506 20.81105730051883 55.17004243012791 20.974048463571147 55.976777078173754 21.669524179857742 C 56.7835117262196 22.36499989614434 57.11229482478063 23.466044234325075 56.819 24.489999999999995 L 55.504000000000005 29.089999999999996 C 53.79388791271527 35.07123696427542 54.79793956477811 41.50177462080464 58.25 46.67699999999999 L 59.008 47.814 C 60.21634968382447 49.62710241327797 60.32887673308508 51.9580548122141 59.30079456826165 53.87912128212217 C 58.27271240343821 55.80018775203024 56.27086419139278 56.9996064274109 54.092 57 C 52.141926002954946 57.000190749135314 50.202796363393894 56.70863032184167 48.339 56.135 L 40.632999999999996 53.763999999999996 C 39.12590202499384 53.29929208273654 37.659617078197684 52.711306467666375 36.248999999999995 52.006 L 34.876999999999995 51.33899999999999 C 34.876999999999995 51.28399999999999 34.876999999999995 51.227999999999994 34.885 51.172999999999995 C 34.89112359777463 50.71228381759456 34.934262454758105 50.25280482925894 35.013999999999996 49.79899999999999 C 35.33191232347264 48.731003141790424 35.899568167793056 47.754059206818695 36.669999999999995 46.94899999999999 C 36.949 46.60099999999999 37.23 46.24899999999999 37.492999999999995 45.88399999999999 C 38.13853308004268 44.97901148582038 38.66329111358759 43.99370348049038 39.053999999999995 42.953 C 40.81028978682899 46.04547195356611 44.39721559610901 47.60724894870947 47.857517663570135 46.78612398816017 C 51.31781973103126 45.96499902761087 53.820614367462596 42.958139677443555 54.000214212550205 39.40628375489301 C 54.17981405763781 35.85442783234247 51.99309380643465 32.61044283132657 48.63327009930755 31.44445773024701 C 45.273446392180446 30.278472629167446 41.54727617186193 31.47046240808737 39.48799999999999 34.37 C 39.27585466164111 33.56570002310196 38.97009890459686 32.78906026261852 38.57699999999999 32.056000000000004 C 38.30699999999999 31.563 38.00299999999999 31.081999999999997 37.69899999999999 30.601999999999997 C 36.98243375618241 29.617297736165845 36.45141661265436 28.510193072537167 36.13199999999999 27.335 L 36.03199999999999 26.805999999999997 C 35.563999999999986 24.406 35.19299999999999 22.505999999999997 32.18699999999999 21.247999999999998 C 31.61496684988635 21.01054578198778 31.024721659766634 20.819593938611938 30.421999999999986 20.676999999999992 Z M 40 39 C 40 35.68629150101524 42.68629150101524 33 46 33 C 49.31370849898476 33 52 35.68629150101524 52 39 C 52 42.31370849898476 49.31370849898477 45 46 45 C 42.68766242950232 44.99669262102197 40.00330737897803 42.31233757049768 40 39 Z M 3.987 30.372 L 4.006 30.146 C 4.042278876310036 27.862890186322122 4.906520776909072 25.670658161323992 6.437999999999999 23.977000000000004 C 7.898000000000001 22.516000000000002 7.987 20.623 8.065000000000001 18.953 C 8.165000000000001 16.779 8.313 15.512 10.106000000000002 14.744 C 11.026940101354068 14.38801927305807 12.058664270366043 14.461347216840014 12.920000000000002 14.943999999999999 C 13.689573740356987 15.314781075519772 14.250931361338793 16.01280429532699 14.448000000000002 16.843999999999998 C 14.538898356482594 17.626263403125684 14.493219343696186 18.418371321147756 14.313000000000002 19.185 C 14.074698250338226 20.218787581696038 14.040728244195439 21.289182475255203 14.213000000000001 22.336 C 14.524716973453584 23.917709747963883 15.633450783220233 25.22510746562388 17.143 25.790999999999997 C 19.155996595506807 26.48580105351811 21.38012473652241 26.17263786041859 23.123000000000005 24.948999999999998 C 23.539000000000005 24.648999999999997 23.916000000000004 24.328 24.281000000000006 24.014 C 24.75233234109608 23.575536747455608 25.269669206185252 23.1892943180436 25.824 22.862000000000002 C 27.356000000000005 22.046999999999997 29.734000000000005 22.389 31.410000000000004 23.092 C 33.431000000000004 23.938 33.63 24.956999999999997 34.065000000000005 27.192 L 34.172000000000004 27.732 C 34.53231903594017 29.149227874825254 35.15580978932087 30.486103315017488 36.010000000000005 31.673000000000002 C 36.292 32.119 36.574000000000005 32.565 36.825 33.022 C 37.62259830841442 34.55711601980849 38.014018495411236 36.2708272694744 37.962 38 C 37.98011591658309 40.40175669095934 37.24884059000881 42.74938818869972 35.870000000000005 44.716 C 35.627 45.054 35.370000000000005 45.376 35.11000000000001 45.697 C 34.136454128046374 46.73959977026958 33.43237438789677 48.00426567115262 33.059000000000005 49.38100000000001 C 32.9538924094326 49.94181143432934 32.896354446734655 50.51050060052995 32.88700000000001 51.08100000000001 C 32.964473158885816 51.91154123728788 32.75902810473223 52.74389324056535 32.30400000000001 53.443000000000005 C 30.18300000000001 55.82000000000001 26.06300000000001 55.712 23.131000000000007 54.608000000000004 C 22.45600774735913 54.30374041967238 21.832532838994783 53.89618755749482 21.283 53.4 C 20.516531697606336 52.70167566563197 19.623920920944897 52.155927327657984 18.652999999999995 51.792 C 18.039443377129984 51.592457082342314 17.398188713143842 51.49120634592345 16.752999999999997 51.492000000000004 C 15.459493972600091 51.55396090429732 14.185972157146871 51.83565067388642 12.987 52.325 C 12.055887687803715 52.69566320771374 11.081395282757807 52.94634297811521 10.087000000000002 53.071000000000005 C 8.670000000000003 53.18000000000001 6.8750000000000036 52.685 6.264000000000003 51.318000000000005 C 5.9265711350870935 50.40233760701602 5.9867436861417245 49.38737891452827 6.430000000000003 48.51800000000001 C 6.724815554452502 47.92154527891294 7.08107886199503 47.35748963771437 7.493000000000001 46.83500000000001 C 8.418607486985778 45.78025112068008 9.006909938097824 44.47233181699402 9.182000000000002 43.080000000000005 C 9.329000000000002 40.64600000000001 7.763000000000002 39.534000000000006 6.504000000000002 38.641000000000005 C 5.867834514826946 38.2439250813311 5.300717691177178 37.74571345841066 4.825000000000003 37.166000000000004 C 3.574 35.44 3.8 32.63 3.987 30.372 Z" stroke-linecap="round" />
</g>
<g transform="matrix(2.99 0 0 2.99 282.09 293.23)"  >
<path style="stroke: none; stroke-width: 1; stroke-dasharray: none; stroke-linecap: butt; stroke-dashoffset: 0; stroke-linejoin: miter; stroke-miterlimit: 4; fill: rgb(245,130,31); fill-rule: nonzero; opacity: 1;" vector-effect="non-scaling-stroke"  transform=" translate(-26, -37)" d="M 26 45 C 30.418277998646346 45 34 41.418277998646346 34 37 C 34 32.581722001353654 30.418277998646346 29 26 29 C 21.581722001353654 29 18 32.581722001353654 18 37 C 18.004959884548256 41.416221915644755 21.58377808435525 44.995040115451744 26 45 Z M 26 31 C 29.31370849898476 31 32 33.68629150101524 32 37 C 32 40.31370849898476 29.313708498984763 43 26.000000000000004 43 C 22.68629150101524 43 20 40.31370849898477 20 37 C 20.003307378978025 33.68766242950232 22.687662429502314 31.00330737897803 26 31 Z" stroke-linecap="round" />
</g>
<g transform="matrix(2.99 0 0 2.99 350.07 260.55)" id="SvgjsG7257"  >
<rect style="stroke: none; stroke-width: 1; stroke-dasharray: none; stroke-linecap: butt; stroke-dashoffset: 0; stroke-linejoin: miter; stroke-miterlimit: 4; fill: rgb(255,249,249); fill-rule: nonzero; opacity: 1;" vector-effect="non-scaling-stroke"  x="-1" y="-1" rx="0" ry="0" width="2" height="2" />
</g>
<g transform="matrix(2.99 0 0 2.99 237.56 287.17)" id="SvgjsG7257"  >
<rect style="stroke: none; stroke-width: 1; stroke-dasharray: none; stroke-linecap: butt; stroke-dashoffset: 0; stroke-linejoin: miter; stroke-miterlimit: 4; fill: rgb(245,130,31); fill-rule: nonzero; opacity: 1;" vector-effect="non-scaling-stroke"  x="-1" y="-1" rx="0" ry="0" width="2" height="2" />
</g>
<g transform="matrix(2.99 0 0 2.99 255.36 352.25)" id="SvgjsG7257"  >
<rect style="stroke: none; stroke-width: 1; stroke-dasharray: none; stroke-linecap: butt; stroke-dashoffset: 0; stroke-linejoin: miter; stroke-miterlimit: 4; fill: rgb(245,130,31); fill-rule: nonzero; opacity: 1;" vector-effect="non-scaling-stroke"  x="-1" y="-1" rx="0" ry="0" width="2" height="2" />
</g>
<g transform="matrix(2.99 0 0 2.99 287.93 367.09)" id="SvgjsG7257"  >
<rect style="stroke: none; stroke-width: 1; stroke-dasharray: none; stroke-linecap: butt; stroke-dashoffset: 0; stroke-linejoin: miter; stroke-miterlimit: 4; fill: rgb(245,130,31); fill-rule: nonzero; opacity: 1;" vector-effect="non-scaling-stroke"  x="-2" y="-1" rx="0" ry="0" width="4" height="2" />
</g>
<g transform="matrix(2.99 0 0 2.99 237.64 269.41)" id="SvgjsG7257"  >
<rect style="stroke: rgb(245,130,31); stroke-width: 1; stroke-dasharray: none; stroke-linecap: butt; stroke-dashoffset: 0; stroke-linejoin: miter; stroke-miterlimit: 4; fill: rgb(245,130,31); fill-rule: nonzero; opacity: 1;" vector-effect="non-scaling-stroke"  x="-4" y="-1" rx="0" ry="0" width="8" height="2" />
</g>
<g transform="matrix(2.99 0 0 2.99 354.53 367.09)" id="SvgjsG7257"  >
<rect style="stroke: none; stroke-width: 1; stroke-dasharray: none; stroke-linecap: butt; stroke-dashoffset: 0; stroke-linejoin: miter; stroke-miterlimit: 4; fill: rgb(245,130,31); fill-rule: nonzero; opacity: 1;" vector-effect="non-scaling-stroke"  x="-3.5" y="-1" rx="0" ry="0" width="7" height="2" />
</g>
<g transform="matrix(2.99 0 0 2.99 326.36 266.46)" id="SvgjsG7257"  >
<rect style="stroke: none; stroke-width: 1; stroke-dasharray: none; stroke-linecap: butt; stroke-dashoffset: 0; stroke-linejoin: miter; stroke-miterlimit: 4; fill: rgb(255,255,255); fill-rule: nonzero; opacity: 1;" vector-effect="non-scaling-stroke"  x="-1" y="-1" rx="0" ry="0" width="2" height="2" />
</g>
<g transform="matrix(2.99 0 0 2.99 287.93 287.17)"  >
<path style="stroke: none; stroke-width: 1; stroke-dasharray: none; stroke-linecap: butt; stroke-dashoffset: 0; stroke-linejoin: miter; stroke-miterlimit: 4; fill: rgb(245,130,31); fill-rule: nonzero; opacity: 1;" vector-effect="non-scaling-stroke"  transform=" translate(-28, -35)" d="M 28 37 L 30 37 C 30 34.79086100067683 28.209138999323173 33 26 33 L 26 35 C 27.104569499661586 35 28 35.89543050033841 28 37 Z" stroke-linecap="round" />
</g>
<g transform="matrix(2.99 0 0 2.99 335.26 304.93)"  >
<path style="stroke: none; stroke-width: 1; stroke-dasharray: none; stroke-linecap: butt; stroke-dashoffset: 0; stroke-linejoin: miter; stroke-miterlimit: 4; fill: rgb(245,130,31); fill-rule: nonzero; opacity: 1;" vector-effect="non-scaling-stroke"  transform=" translate(-44, -41)" d="M 46 43 L 46 41 C 44.89543050033841 41 44 40.10456949966159 44 39 L 42 39 C 42 41.20913899932317 43.79086100067683 43 46 43 Z" stroke-linecap="round" />
</g>
<g transform="matrix(7.22 0 0 7.22 300 445.65)"  >
<path style="stroke: none; stroke-width: 1; stroke-dasharray: none; stroke-linecap: butt; stroke-dashoffset: 0; stroke-linejoin: miter; stroke-miterlimit: 4; fill: rgb(247,247,247); fill-rule: nonzero; opacity: 1;" vector-effect="non-scaling-stroke"  transform=" translate(-34.01, -12.94)" d="M 11.7090125 20.19531 C 8.6817125 20.19531 6.3184125 18.740209999999998 5.8887125000000005 16.093709999999998 L 8.9160125 15.400349999999998 C 9.1113225 16.982349999999997 10.273412500000001 17.802649999999996 11.8262125 17.802649999999996 C 13.0176125 17.802649999999996 13.9649125 17.275309999999998 13.9551125 16.083849999999995 C 13.9453469 14.755749999999995 12.3828125 14.335849999999995 10.6641125 13.808449999999995 C 8.5938125 13.163919999999996 6.3770125 12.402149999999995 6.3770125 9.804549999999995 C 6.3770125 7.177549999999996 8.5254125 5.6932499999999955 11.3575125 5.6932499999999955 C 13.838012500000001 5.6932499999999955 16.3380125 6.699149999999996 16.9044125 9.404149999999996 L 14.072412499999999 10.107279999999996 C 13.8087425 8.700979999999996 12.861512499999998 8.085779999999996 11.5333125 8.085779999999996 C 10.3517125 8.085779999999996 9.3458125 8.574059999999996 9.3458125 9.736179999999996 C 9.3458125 10.820179999999995 10.732512499999999 11.181479999999995 12.3341125 11.659979999999996 C 14.4630125 12.304509999999995 16.9825125 13.124779999999996 16.9825125 15.937279999999996 C 16.9825125 18.935279999999995 14.472712499999998 20.195079999999997 11.7091125 20.195079999999997 z M 25.937528125 20.19531 C 21.787128125 20.19531 18.720728125 17.37301 18.720728125 12.939409999999999 C 18.720728125 8.505809999999997 21.787128125000002 5.6933099999999985 25.937528125 5.6933099999999985 C 29.082028125 5.6933099999999985 31.601628125 7.3046099999999985 32.607428125 9.98041 L 29.873028124999998 10.9765 C 29.248028124999998 9.335899999999999 27.753928124999998 8.3886 25.937528124999996 8.3886 C 23.505928124999997 8.3886 21.640628124999996 10.0878 21.640628124999996 12.9394 C 21.640628124999996 15.790999999999999 23.505828124999997 17.4999 25.937528124999996 17.4999 C 27.753928124999998 17.4999 29.248028124999998 16.54287 29.873028124999998 14.9022 L 32.607428125 15.898290000000001 C 31.601528124999998 18.57409 29.082028124999997 20.19519 25.937528125 20.19519 z M 44.453593749999996 20 L 43.42819375 17.0898 L 37.50049375 17.0898 L 36.47509375 20 L 33.47709375 20 L 38.67239375 5.888999999999999 L 42.25639375 5.888999999999999 L 47.451693750000004 20 L 44.453693750000006 20 z M 38.35939375 14.6387 L 42.56839375 14.6387 L 40.468793749999996 8.6524 z M 59.209140625 5.888999999999999 L 62.129040625 5.888999999999999 L 62.129040625 20 L 58.740340625 20 L 52.490340625 9.912 L 52.490340625 20 L 49.570440625 20 L 49.570440625 5.888999999999999 L 52.920040625000006 5.888999999999999 L 59.209140625 15.918 L 59.209140625 5.888999999999999 z" stroke-linecap="round" />
</g>
</svg>