{
  "accessors": [
    {
      "bufferView": 1,
      "componentType": 5126,
      "count": 65532,
      "max": [
        109.5,
        -25.000003814697266,
        70.99999237060547
      ],
      "min": [
        21.0,
        -93.50000762939453,
        4.4999871253967285
      ],
      "type": "VEC3"
    },
    {
      "bufferView": 1,
      "byteOffset": 786384,
      "componentType": 5126,
      "count": 65532,
      "max": [
        1.0,
        1.0,
        1.0
      ],
      "min": [
        -1.0,
        -1.0,
        -1.0
      ],
      "type": "VEC3"
    },
    {
      "bufferView": 0,
      "componentType": 5125,
      "count": 314952,
      "type": "SCALAR"
    },
    {
      "bufferView": 1,
      "byteOffset": 1572768,
      "componentType": 5126,
      "count": 25717,
      "max": [
        109.0,
        -25.5000057220459,
        62.99999237060547
      ],
      "min": [
        21.0,
        -93.50000762939453,
        16.99998664855957
      ],
      "type": "VEC3"
    },
    {
      "bufferView": 1,
      "byteOffset": 1881372,
      "componentType": 5126,
      "count": 25717,
      "max": [
        1.0,
        1.0,
        1.0
      ],
      "min": [
        -1.0,
        -1.0,
        -1.0
      ],
      "type": "VEC3"
    },
    {
      "bufferView": 0,
      "byteOffset": 1259808,
      "componentType": 5125,
      "count": 107190,
      "type": "SCALAR"
    },
    {
      "bufferView": 1,
      "byteOffset": 2189976,
      "componentType": 5126,
      "count": 20406,
      "max": [
        66.0,
        -29.500003814697266,
        44.49999237060547
      ],
      "min": [
        41.0,
        -51.500003814697266,
        15.499993324279785
      ],
      "type": "VEC3"
    },
    {
      "bufferView": 1,
      "byteOffset": 2434848,
      "componentType": 5126,
      "count": 20406,
      "max": [
        1.0,
        1.0,
        1.0
      ],
      "min": [
        -1.0,
        -1.0,
        -1.0
      ],
      "type": "VEC3"
    },
    {
      "bufferView": 0,
      "byteOffset": 1688568,
      "componentType": 5125,
      "count": 58290,
      "type": "SCALAR"
    },
    {
      "bufferView": 1,
      "byteOffset": 2679720,
      "componentType": 5126,
      "count": 29251,
      "max": [
        86.0,
        -28.000003814697266,
        51.49999237060547
      ],
      "min": [
        40.5,
        -56.00000762939453,
        13.999993324279785
      ],
      "type": "VEC3"
    },
    {
      "bufferView": 1,
      "byteOffset": 3030732,
      "componentType": 5126,
      "count": 29251,
      "max": [
        1.0,
        1.0,
        1.0
      ],
      "min": [
        -1.0,
        -1.0,
        -1.0
      ],
      "type": "VEC3"
    },
    {
      "bufferView": 0,
      "byteOffset": 1921728,
      "componentType": 5125,
      "count": 108066,
      "type": "SCALAR"
    },
    {
      "bufferView": 1,
      "byteOffset": 3381744,
      "componentType": 5126,
      "count": 22457,
      "max": [
        69.5,
        -29.500003814697266,
        44.49999237060547
      ],
      "min": [
        37.5,
        -51.500003814697266,
        14.999993324279785
      ],
      "type": "VEC3"
    },
    {
      "bufferView": 1,
      "byteOffset": 3651228,
      "componentType": 5126,
      "count": 22457,
      "max": [
        1.0,
        1.0,
        1.0
      ],
      "min": [
        -1.0,
        -1.0,
        -1.0
      ],
      "type": "VEC3"
    },
    {
      "bufferView": 0,
      "byteOffset": 2353992,
      "componentType": 5125,
      "count": 83538,
      "type": "SCALAR"
    }
  ],
  "asset": {
    "extras": {
      "author": "PTheerasin (https://sketchfab.com/PTheerasin)",
      "license": "CC-BY-4.0 (http://creativecommons.org/licenses/by/4.0/)",
      "source": "https://sketchfab.com/3d-models/brain-tumor-0fc557b056844954b67f2d4b72d22303",
      "title": "Brain Tumor"
    },
    "generator": "Sketchfab-12.65.0",
    "version": "2.0"
  },
  "bufferViews": [
    {
      "buffer": 0,
      "byteLength": 2688144,
      "name": "floatBufferViews",
      "target": 34963
    },
    {
      "buffer": 0,
      "byteLength": 3920712,
      "byteOffset": 2688144,
      "byteStride": 12,
      "name": "floatBufferViews",
      "target": 34962
    }
  ],
  "buffers": [
    {
      "byteLength": 6608856,
      "uri": "scene.bin"
    }
  ],
  "materials": [
    {
      "alphaMode": "BLEND",
      "doubleSided": true,
      "name": "Default_OBJ.019",
      "pbrMetallicRoughness": {
        "baseColorFactor": [
          0.256978,
          0.731265,
          1.0,
          0.35
        ],
        "metallicFactor": 0.0,
        "roughnessFactor": 0.8063508326896291
      }
    },
    {
      "doubleSided": true,
      "name": "Default_OBJ.020",
      "pbrMetallicRoughness": {
        "metallicFactor": 0.0,
        "roughnessFactor": 0.8063508326896291
      }
    },
    {
      "alphaMode": "BLEND",
      "doubleSided": true,
      "name": "Default_OBJ.021",
      "pbrMetallicRoughness": {
        "baseColorFactor": [
          1.0,
          0.238433,
          0.0,
          0.5
        ],
        "metallicFactor": 0.0,
        "roughnessFactor": 0.8063508326896291
      }
    },
    {
      "alphaMode": "BLEND",
      "doubleSided": true,
      "name": "Default_OBJ.022",
      "pbrMetallicRoughness": {
        "baseColorFactor": [
          1.0,
          0.001357,
          0.002999,
          0.65
        ],
        "metallicFactor": 0.0,
        "roughnessFactor": 0.8063508326896291
      }
    }
  ],
  "meshes": [
    {
      "name": "Object_0",
      "primitives": [
        {
          "attributes": {
            "NORMAL": 1,
            "POSITION": 0
          },
          "indices": 2,
          "material": 0,
          "mode": 4
        }
      ]
    },
    {
      "name": "Object_1",
      "primitives": [
        {
          "attributes": {
            "NORMAL": 4,
            "POSITION": 3
          },
          "indices": 5,
          "material": 0,
          "mode": 4
        }
      ]
    },
    {
      "name": "Object_2",
      "primitives": [
        {
          "attributes": {
            "NORMAL": 7,
            "POSITION": 6
          },
          "indices": 8,
          "material": 1,
          "mode": 4
        }
      ]
    },
    {
      "name": "Object_3",
      "primitives": [
        {
          "attributes": {
            "NORMAL": 10,
            "POSITION": 9
          },
          "indices": 11,
          "material": 2,
          "mode": 4
        }
      ]
    },
    {
      "name": "Object_4",
      "primitives": [
        {
          "attributes": {
            "NORMAL": 13,
            "POSITION": 12
          },
          "indices": 14,
          "material": 3,
          "mode": 4
        }
      ]
    }
  ],
  "nodes": [
    {
      "children": [
        1
      ],
      "matrix": [
        1.0,
        0.0,
        0.0,
        0.0,
        0.0,
        2.220446049250313e-16,
        -1.0,
        0.0,
        0.0,
        1.0,
        2.220446049250313e-16,
        0.0,
        0.0,
        0.0,
        0.0,
        1.0
      ],
      "name": "Sketchfab_model"
    },
    {
      "children": [
        2,
        3,
        4,
        5,
        6
      ],
      "name": "Colour.obj.cleaner.materialmerger.gles"
    },
    {
      "mesh": 0,
      "name": "Object_2"
    },
    {
      "mesh": 1,
      "name": "Object_3"
    },
    {
      "mesh": 2,
      "name": "Object_4"
    },
    {
      "mesh": 3,
      "name": "Object_5"
    },
    {
      "mesh": 4,
      "name": "Object_6"
    }
  ],
  "scene": 0,
  "scenes": [
    {
      "name": "Sketchfab_Scene",
      "nodes": [
        0
      ]
    }
  ]
}
